<mxfile host="Electron" agent="Mozilla/5.0 (Windows NT 10.0; Win64; x64) AppleWebKit/537.36 (KHTML, like Gecko) draw.io/27.0.9 Chrome/134.0.6998.205 Electron/35.4.0 Safari/537.36" version="27.0.9">
  <diagram id="Ht1M8jgEwFfnCIfOTk4-" name="Page-1">
    <mxGraphModel dx="1240" dy="731" grid="1" gridSize="10" guides="1" tooltips="1" connect="1" arrows="1" fold="1" page="1" pageScale="1" pageWidth="827" pageHeight="1169" math="0" shadow="0">
      <root>
        <mxCell id="0" />
        <mxCell id="1" parent="0" />
        <mxCell id="cVnY-JXB5LHUISSboKDK-10" value="Batch Ingestion" style="swimlane;fontSize=14;align=center;swimlaneFillColor=#203E53;fillColor=#182E3E;startSize=33;container=1;pointerEvents=0;collapsible=0;recursiveResize=0;rounded=1;strokeColor=#432D57;fontColor=#ffffff;" parent="1" vertex="1">
          <mxGeometry x="180" y="290" width="1030" height="320" as="geometry" />
        </mxCell>
        <mxCell id="cVnY-JXB5LHUISSboKDK-35" value="S3 /raw" style="shape=image;verticalLabelPosition=bottom;labelBackgroundColor=none;verticalAlign=top;aspect=fixed;imageAspect=0;image=data:image/png,iVBORw0KGgoAAAANSUhEUgAAAFAAAABQCAYAAACOEfKtAAAAAXNSR0IArs4c6QAAAERlWElmTU0AKgAAAAgAAYdpAAQAAAABAAAAGgAAAAAAA6ABAAMAAAABAAEAAKACAAQAAAABAAAAUKADAAQAAAABAAAAUAAAAAAx4ExPAAAfjklEQVR4AeVcefRdVXXeCQnzPCUBQiCMQSDMkwwNguBQVKpiQSwogwUrtjiUoassqkvMUlFQZInVWiYBFUVUkCqIIIMiQ0BIGGTKBGEIIUCA5Ndv2Pvc+35AhS7/6Fo9+b17ztl7f3t/e59z77vvvgcj9pm62VCMiIihiBHscWDv4QiKNUYHuXW2tRFlbnBDvQ0bPpXqGh4zx7CPsil8+Wyuc0Df1lUs4ykXz4xfuFfzQ1s2xdIkOWcBiJWketkK4tjEZK3oY9QQZxQ4ZVkODYmOLXWEFsaWO3jhBMChyBIJwxKrFykeEIgq+9Is41LWQSoOpMLw2PzDQeFjBJxVqJ6DLnxTGg8FJcZrJP8KU0yGuGkS5/BEAMO0IMef8JAymZEOZtDQ0JIYWmLHPPJFsEcp7xQSV7Lsia25oHlQXDsrak1Ne0agguMl9NO0HHDhrBsQY6KYMlZ2DT9gh8xtR0NFamrKFVgSc1+CGrSWEDKSaVNgAB1lIyWTlkVEE5fUqpM0Sdi5kqS4+NhErrqEHcAkOUZxuDj4Y98nRIJq5QdKDrvE7auK28lNQNYDO5CS9MGYLCL+DeAVsBbH4XnkmejYoioOlMtfkq6cmP8oZlK8a5v6dKFzB6eBZXTlZic+8ZsHO7AtF6J5JrHBViR8OlFXsdzTHiPh1JcDTAb8Mg4NZOtCsWAqBBStJ7dsMk9Q5azSyZei0YXybygI+nEr6Eg5s7UZIyST078kxk4yyjGp4pGP8R0zBrStexEQzuHtl9cxY+wr/cCbE7bj0jFoXR6Eh7oWlHyYvGISz0RNkjA3ctbu54C8VC7pBvCQw5UN1NHQhePlTcnSpjnOU1gBM3CRtoy2QPQAgGdDKikvNZPjaaKmfkQ7bcRMwTv1gCnEnHc+7adOO6PymHaDtlnEdEo0a9HwmFBmr47T8CnlXHDaYqDFbJcbFrLzoTEOI72y6RAGrUEpZ7REa8H4RpOyklfgAbmVLWKHZ5m7ZqwXQ+NUyapnKDzm2kk9DwN+qU9M35epWNF2YsUhAC91kAmXfshBPFJuP/2dyAKmo+rkgNs9m1zk1GSxPPjTGwFsinCzZ3CdLpYQ2kj0Em87tYDaL3BM+55TJwQvOpXK2Du7ZknPW47RXg0P/8PlhVfvtDQctOtytHyQ4yiml3/2A6IiCxI2hRiDxolCFEjXoJ6wgkqe143APVW1KiJ905lOjyyoRVUGaCoe7/Oy9f2z+M0Gel+lbOhr42CxqOnwPq1tJwUOGRBd46/cIMhGfM3EigTAX/eBFMieVDBRMBhU0uw1FqafFF10L8YitsgWpmxYtAYoW4J6TZFMRlxUnnSgonfhW5wO3uOfuVAnPvDplDsHvhx0aIXp8288EqOaOIXyi/vAbrVa4umE+HJagL5NhS4ifZ2wAmcCMNYFfTiplJd/BjSWYDRM6Ld4KEba2MB+bZp2sDYX+5A/upK7kqFnRQdk3ZyYaoqPufseHg58CsOSyraty3PJy1Puym3X3yUO2/242HjtLWLpUcuU9i/Sv/jyonhg3j3xvd+dFXc8ehNL0ePlIujI/MmHmXJjq88dToFklReplW6QZrvKJN7l6Wzkt5t6VEYMs/tnJw6NBBG2roAc25ayvny7CbvG1Pd/Z0Bmy7/skcRP+cnRMW3mTQOxios5OxPJmAyLxKZxDofxr7wqZ5mPNE5+ckEqDnv75UJ2MUYkBp9EsErEi8vgaosJ9dwFYjUUh+/xCSV03m/PigtuOjteWvyiE0RgBRMXWA/08KQ5ew+s5hEXYsgYnjGWHrV0vHf7I+OgHY+Og3c6Nk64FLswfTPZaj5ZPZMXOUieEhcHRHhVfIdl8PKnPKmCTFxTR9qsLcuglhN9Fq5tSplfcKcx3RJFOQWB03aS5uff8I3g6UaZdCwCbGitnmPdM1KSNmXLecnQ110T0VyQS245B9KIDdfcHD40lE+OFCv7/tg6Hrv4r7zmklPHRzzTnpWxTiTBxLZ9+/LtXsB6mNAjptSqzJTnSy6jXfOYaLccsMkqiF/CuYKkK6L0w8ho/fvE8tEnat9drMYhHZRt7ZaKId8wLnllIT3jCl+FYuSyMEcXkV7QMlZ/UqKKT/ioSri5ghWrr9b2LVxrh1nMoywIJlAdB/biAKmQGlRzh2LqMUFyQoll7CVyppyq+KSh0wlahUwu5FlFoE21lmCSo8r48sciUtjj0HPQhS+C5k+QYIqvET+J2IhHBq7gkuJQgR2xKNJYgBRzpxH7/+954sgqBEujoqnHSMswWNAqrm1VXQ7T1qcrF112xMsNDjJxgTn2tQmD2jU2oQotd4cn9oUxff5ffJ6IR/omV9ucRHVa5GniPCDrbXHKqpjEVf40EV62LAQ0EvZ2sh0m3icgd6+aHQzEar4TV12LDwzDiEXiGbN4tZ4DNti2eJgWhCqipBPe/CVjTWiYzeHMTA9UpeyRcOKwhoz3O1SpMOVBvR1SZ7xGYjSAhxk1mSWtOQEmH4ZTUtxg6ISEgMbWxEoiQ4zwNzLvw8QLcup5dMLGEVXcVGTGyVh1H0g5bYpzjc2SOmAYUkXEWFEQXwr0FNWK0Jkd0SE1mOeTlYxroTW2pY1ZqNe4yVJXznpoaHp4K8iDp3e/6XSXAAyoKl7oy7TfD8SHeYfveRW2H59OXcSGl6SHHwzfch1Z1yMC+a+R1LwLWo5LQtJ6ocAeC11q+aG8S5gTYl7f80QZC0AQcYUfjCPe0LU+gbIyRBLh6Ue3W51iwC/1qZK/9MWu2WlDdXh8Fs6mLcaTwMZ5hjSgt3YZ20YyiGp3/uozMzqDNzh6+1feJISL3hH0KE9NsKtYXPg6jRyqNMXN0kp8kKufJxaeMTJ9jLgYmOcpOoCHwlfXisHvhYurUAYS62kpDTCl4UfY+G+44g3N+0R94Ul4Umj7Lsm1Cz7MLCqu0CR/3eeVm0yUhWHxmw3xLFrauXA+nVOkruPn07oK3HYgHXAVmiHdQtgCQVmgciwinAgYMeW0TaUixra5YtSjUZbDzlezTTeZqBEEaX00HdmfUJ4EyyeN6tRlLKuzp6uUFQnizVPuaSEMvZQtc5Fd4VupIcfp3PssTLDXgR3HnOklgWUViiIT7+NonVjiMW34nrxs2LP5utT5Lx5WdnJfr7sY0uNAOZtwjKmXZZy0XHJMUgkRro8nipmbg33In+QZo2KhAPlJpADy1zu8ltyO0r3sB5KuJa5AZoUZik1ZvtB5wk4X9/5ekrYVx7MOyyS1hOmsilB2tZuGy23e5VW8qzc582DhdPMuITxnrH4/isRHjPQ9GYMrEeK1d91J3l8yCmDDoPRZF+NXs9MpwlPHSrsFjnIm51Am/Gp4ytgqQZ9arx/PNApPDnVqknPzyYWFnT8aw4oYEbY9BUyf2dIfcYVvp7CKQatqNSSw5CWjDcf5UodDsysfZFJyGgmQSs2bC2E7PDPoWoXvJBil0EvoHTXcrl+8ASzh+tcxIta+ypJvRubR8SqdcUxBbyIEu7KQEENN70lF2y3FiCbJtu0IAH994n3Q/O/aW780yT4bEfthnH4MJsmvEVZYZqVYcZmV8Vopll16hXjhpYWx4IX5sXDR/Hh20YJcEOZV78o9P5AN588CdHVgAbIM6Ft87gfVqsOjgF2VO8Nyhl7VlL906bFqzGTZMBm0s/iNHHUpaQQ75MZj3hQbrbU5XpNiIzzM3XDNTWM5FOx/avyF1UIU8ennnoiHnrw3Hpw3PWbMnRb3zLktFg+9pOKRet0TqFz9hcq8MruuAr3iaWHgAfeBgnMBWitZE8CFi9tJuqKJiZZhz89t3Azkj4ckRjwbjxp72uI6GQu3W3832fJw5sGXtHENnlv0bMxbODcWvfR8LHr5BT0ZH42vApYZtSxey8XqK6wVKy27il7jV58Yu2+8n6C0nzbz5rh6+mVx84PX4Bq8uBXx1fMnH+SOY/HvzggKh1zAKg53Ud+YUeVYOyzHFGZT7eGEydcqUiV/7HPFZE5jOJNd6rxveYp5p++0wR5x1JR/jglrbCQID488+ae47eEb4v7H7o77HvtjzJ7/iE5XEaUzEK7kyL3my6KQY1dZDzt2M+3eLdfdUV8R7LDBXsHXUwsfj/NuOiOumfETvwnCF/OXS/CRL/rDyHvMm0iiPKiY2524HjX8Uyso53wRXE8+aHDjKQ/KbrdTN4Rrg4RNB5IQC6uWWOoItMxkmh7yY95yUhy4/YdoErOffjR+Pu2SuOaey2PuM7MaN+oaBj7LrXhkzBJ28bvEV1lu9dh9k/1j30kHxga4FLDd/Ker44tXfRJ5+rePJE4s/ajXMEfUDZPreWCWGADvBBOryruIRZa+2WpVGEgrARmde6xI5ZbW0hHHsY52IJL7b/1eFe/5FxfG2dd8Ia6Y9gNgmRBsGVhdJiE0RMI7yXb9lW3GEsyxCCF6/vNPxs+mXajXLhPfEkfveVLstOGUOGiHY+LCm8/MWI5Je6JbzwEbhC0epngijYCUS4EBJhpzLpLuh/+qFJZuwhOEKe2ziDodNLeK93z0RxFfpmbd7pu+Vb7OvOrU+OntF8fiJS+LpO1sY2zh6cAZ9VzJ0Ll0drJSXMiA4pG+bvrTL2Pqlccr7s4b7i0dtdpENpSdDIjH/bI4yAPTdHy9C5OoF0907KQ584oaYD2dEqOALFjaXvcvD1D4utqU0zaRD/rV16NAfWCXo/Cu+UBMn3OHyHY7Gsok3DlnQk6k8SeTlOXAN+vAaq929GPcyhPi0F2Ok7uXl7ykvnKqTcA10s2+8F1khFHOlIyyAUbt23WgWFwa6Q2CZuXI4zqSD1elTqSSv57eZOVA1zxi1sebx9cPvSSmPfr7uPrun8aND/w6Hsc1kHwUB4n41EZEckSj3M2CJodwRNPBDv9WXX6N2G7Cm/GuvL/6kflUfO78Rzs/WSxtCn08sffK0zwoczzdSNuEMu6mjixNzMG7UMo07hylAMa7nToxJ/x4hyGzgQPuJO9gixzccsab9fTDws1++pEYNXJ0bLXeDnp9HNLHF8yJe2bdjp15f8zEO/JjC2bH088/EU8vfDIWLX4hXl78ksLQwVIjR+lWZpXlVovVVlgz1lppTKy76gaxHm5lNh2zVayz6vqKwwNvup9+bl6MX32jmPPMo5CQsFs/N47ZdDaw90w7kx/n8j6wTkMb0shAjQDiytdKy0M7NDEHMHexXHgvh007fPpkpzYUs5+qAj4an7748Nh5o71iny0OUBHXWmlsrLXZ2NijzIf19MtTkIWvRRpm0qbPPP903D371vjNfVfEDff9Vxy11wkq4FwUsM8v1x3JdDmXnjHqrGXKgzsQoWyYpwgsVPn0M5wg31hKRhOVhl41ZtFZUBeziiultnL3MGFm7sB1VlsfbyBLkNzVceP918B0KMasvG5sse42SHQi7uvWxXydWBuv5fFpRDfOo5eL0UstLd4v5I01383nPTs3HsPp//iCWdjhD+FTyB24h3zI4XEk77Err6f5HJzC1Xjq8q/ybn1ilF4uPmulAnJgwzqt7ETZ03PplbhDqdA9RwN4wJNFGaN+3uVUsagmSfUIXANnonCLccqN1Wm4OC/q1PI+cO4zM8XP1k5OYzrC36gRo2NxvNx4Nh0GemqCYOQnOQ7FlTfabLPm+wxQHcST0sQgd6VDPMZszkWh/QtVClUQDTjhgAD88e2bU7Y2wJDO9EchbNK57NrhNeTEFTFgedvCa91SI5fSDjM1O6k4ju2LgiNmEEx4CusxHDkPazzd+q2w/Fp1zRXH4XRcojeq4XbkQOhwufFdXviJLycZAr0Ts4HIQ0VatitD2jvAcOLd/RIxtHNr+IxBp5QVwVl5HVxn1fEtVsXnlqWrmldP7GFvPi6+f+yN8f4dj1Ag6vqvDN9knFO/9krraMGewKn+MhawWh/LcTWOiyvF9b4wsm8gkiVgr03YVbuvghRTB+gHbTZWyaQRKRmNCo6ew5mtgN07ZRJw4YTVwSFy+O7tDtVDg8N2/0Qcu/fJumYKJyvvyF4djMVx3CrjNZ6t07eK3tQa5Fnv+IMqcHYFVMBKsOuRFKL6RaQv+D36WRh7LYLsaeO+8EZx9azjkbvXenrguHbgONxqVFz1QtmGQ+94z6m/9A/nBt80eE/319scHN/+8JVx4ju+HJuPnQw//A7a8dUTn/Mx+QbChxO4SqmZIWySU//TV+H6Pce9HZhOKqCmuYKZRHVUZUyMapUt6QLQKk89DtVsw+uORm2JeztwNe4M+ySEdPQCojBVRNp95zdfiQPO2D6O+PY74so7fwjbJbHnZvvH6X97IV7fi7/a/J24xdEvWBpn4msHrrfaRD3+6nibI2PXG0/jkKqy5Wmc18AOpKSBoFH3ojsWrWdHPf+lnS18LJl7FsA4dtyJDExXTQ9Y7cB12w50tPJlXsBou3TXxOLwMD4CfumKk+KD57wlLrzx7OA936Rxk+Mzb5sa5x55TXx49+NjnVW8uxl+TL4Dv2md7eIbh1wWu260j8iTacWsnmS91s6XhpWLCmiBL5IEkaxfPtoRrQYbTW3fOax5WSqw7EpCOm7C56zuBcdpB6YNDGsXiDFgxAqvAROiLxaU4yXxxILH4jvXfzUO+eaU+OpV/6pniPxk8r4dPxLfOvzncfoHLooDJh8S6+MTCBs/dy+/zIpxwttOj90m7tvykTIPztMThespfR8IgXcF1NwcRLCG+CxIgItAil2TCW3Qmo1mwBAuHRYFT6X8PNHJ1j0Y/a+90rh4386H4ZPHHro5Jpw3yO/Z4YNx+a0X+fZEvsyDjo2HUwQYKC7mZMi45M+nzz+742K9Nh+3dbxj64Ni9033i83GbqWXqOLw4Lx7dUPO54OH7HJsXH//VeJfemZXnJ1XfRJhfNCYdPwY1YUFpICNgBp3cyqH4rbPz6Qotj1hPdukITv6YNO456Dvr5I+YNuD4uP7nYwvh1YUZviBp/RJ3z8GT6LvGfDXcwt5RXTQ0lluvgRzRBk/sey60RR8THx37DRxr+Eh4/ZHboqTLv2I/ToV2fTjcFyNQ/02pu7WXQLuINbUhgRwzlcfTDUkeuJhG0PoVHBFeeXqEbXfVu+KEw44TRa/mHZZ/PD358Z9c+7GqbR8TJ6wU3zozcfEJmO3iLP+7uI46j8OjIfm3ef4QnS8OBXTFhS65Cv6UEolwyE9Nrt2xpV6IMECznzqobjstvNx6zNOX0Bdcef3DWv55w+YmD990BlH+Kun9O2jXAucdlUw90Lz0JqLVAVKolk5rrlOJ/aQscAu/pA+rp30rqnyM/Xyk+NHt5wPMP9GxPMvPRe/+uPP4tp7fhEnHjAVhX53nPqeM+LLV5wSW+Lz8Hy8MbAAz77wDPBcVMbtYjAWm4qWcRW/hNKGvivh8IHH746f3I74aKqNRvaZzv2mR/4kafeyylD1NAagBNdAtkmCKpNrVmWdAWhAHVHoc/hqzxMP3vUofa/rnXee/IgcsYTCDz8Xf/6yz8TEtTeLTcZMijMPvUB2PBw95VNx/IWH6c1BQmai7MW46ItKspHfWki+0Yxd2TfRs/D4rIouIzisQgpbVYJcGwJK2augil73gczYjYb1kYVOCWgcVaC06zkvLKMzcN00U04zkdckYs9J+3IU/3nd2erbQRQ6PD/f/vuvvyL1IvwHPZf+/jw8F5wWqyy/WnxsnxPlk0rG6zfxrTtjKJhPUVXyyIlPfdh4E106CXAQX+LTMTv6YKue46qRnweCPIHMQZu1VZqmbi5CV2hKTYgjJs4rIka5OkWWYemT82VGL4uHmuPxteQLcd/cuwlU3DaAA5/ull83/ar43I8/GffO/SPeTKbrTeCSf7g2tpmwc2w9fkc9uab//JMbXSqSf2OLQSsUxu0xFnagwMmPDhpeTpsHzFxEbhI6U06QtU8iii53MFW0XlTOE1927LsCdlLKaK7QGLh4EVuN3z6+e/TlIshrGO38yydjy73xntHPz+/4IYo9XeFfwq68fsYvBTjjgxfEZ//mG7HuahtIR1tGZS9eLGKSZq8xScGgnkzzSThh9aKHgfjUsAxpw1zaJG2HfRam1LtFjjAlQIQSQBGbZSrTK/SiC6IVeIt1J8dZh10QG43ZFJ84HomvXXWaMYY3X10c+y+85Mnju9d/Pa5AUZ978Vnc1+0T3zz8Ujy53r7HKbGMT0zjajmfXK+x4tr6KoCP0Njqo2EXP7FJoOS6NNEpMdnrv1jvF0laHJQbCZAIAalYhNOPbfRS/u+E009z2Bl7tUju0+88FT8AWi5+fMtFceDpe8VPb+X3vnTOP3svQhkmOyZSkS2aO39WfO6yT8V7z9gjfnnX5fqR0b8d+PVYdvTyPWiuDCQVR2GQFT/C8TTlg1r9X4rSfX1E7DnRsK51JTfb4l2fhVNLpT7oY8DARb62Luf3zLpL1kfu/fH2KL3lWDiWJfFrrzw2thy/bSx4fn584bKT9ezNfvN0y8+2jSDmwkLQ/GqcfDLGsy8uiFN+dFzc/vDvYtUV1ogpm79NLipu9RLqdHZOvAaz+SlMl6OEOBSu+uFyzqnjFmNxdR/YCSHmRRJNJhlYmUBMzZlXfiHOOfKi+Og+/6iXjF/H4f7HZuiHQJ1/v+kQakJ2osWSEAcGZMHwTzjztiHHaLwmTl5/R3zztqH8lH9r4aDwdIYvicZVAXEpYUs3GHjk9BmYzT1VWRaLeUxh7xpYIDpVVF0btBJpzxC/nXFtHHnOQXH7Q7fg86ZPZ/r7c42/4yO+nRIMQQFav6eIc3Lo7wJdf6SjRXed5m0N25ML5xlHLBzIB3tFtYxD/kyObSa+aNLCpT0r1OVasV/7eSJZ0H5gB3L1KGS1adCqzoklErKIN9z7G60PMdOm4stvtK0/s4762gXs+fnzVyffhjeQzWLzcVvG9Nl3qojUeclqlb3LHJ88GAq94sotDmKlywx1Ky67ckyZ9HYpZ8zxpYX25ZkK+uEbx+QJO8a7tjs49sDPSHij/ocHfwttb9Pg0gGXGVcuM346oQh6Ini9ZHxO9FmYxCSgERqDUtYabZUMxQ7EHqNBOwG8CIXlzzZ+cPP5cdiefx9fO+zc+Kfzj4g7Hr5FftqHFxiTTzUWcbCZH8WMOhoPSLdYb5v42L4n4qZ4fNw187aYjpvsNVZcSz++5OOrCWtOxGtj/Aprk5g8fgc9sqJPfvV5+pX/Gvc/Pt0hMgUX3SQcv8uNeSr/5OVaiEyMmPixNYb6xVNhM5tO7gQ897gSZJi7vujbgS0/PY6h2mLIF/RL44eP38R1c5sJOxRsoB9esFfM+4sJJB/fd9wGXL3mhDfu1824Kn586wX4TP2Ull6bBCRbXkJjnv+Zlvm7kLbxmA9f5AA11ClMwn1CwxOgTsVPu7KvwI01Nw58C69YPAVDbx4f/dZBccTex8WULfbT6dwwhJBQrw2f91SvOmQ8Poh4btFC3B8u1MOGR596UE9x+CRn+pw79bUpwY0zYrY4TI454h+pKD9FGpSx4MTwegy0bEdseOwaQFtRztk35wrKumSS6Cpd2TSxHRZJEqnW+XPgTo5RGrKrGBr3HBhv1AAvimTX45+LPGBH3+mv51ayRhOK0imesnRhafNaePzAMv+bB/T8o6F2kPnmnCqShB7/tGDY5jAX5g09TxRjJ6xyZsL0Sc6MobHipx0ElDkJRc0x49umkSn+jENM8uzvKrqugihsC2oCyr/w5ENAI2VF/ffOA7cxNHTxXCTjBOfQnnJKO9v2McNlpSOYgbPBB/n0Y4lW36dod4vZLx69dHiMnWInUxEdS58wEKsXvZEY4J+FH5QlRwZ7RXOu7ddZuZ+4NI2Qn/EVkiycEDoQMqUK2AjmQCERuK20SBC/RLKy1/WEk/aWjInmFHGPupVd3UKQA2MwvrmQH/7khxgkCKPCyw5zX7+oTw150VkuQtlzSv+a41B48qdUEIz8P51ocBvWqkGcmubKIkpVkJq2sKQtkta44I1jR2kYPv2AFSMxSfZsxLpInEikw2B8iDLTwpcl7WxLLmkG48L3XDa/yj8dkAlxbOWHsfSlO2T+kTmZyYiVdXU1LaThOlJfROwXR62QyXHNbWO5QDgwuHU5lh97IJJEWQPFT3t7NK4SLt/s2RrFJCV841P+HVMARYFPw+mh/qSW3+TWTNKfDXCsG2nEfOXzQAiLrMLLyyCRpm/s5VoHrxjte1Fply4KS+P+WOCU0dxhq3i0pQUL3bXX8zyR1i18q5q9aKdjyFnzz7kIeFGFhwX/ufa0dqOZ30RQUbZKSAF9kHcOra9AXW954TH7M88TGaP5d5l6cdMP6dKO7vhKApQ0OWWqcul5ZiQeXbMrfMrq8tDB+7jCZxxiCp99F8O2/mkHlbw2snfXjh2R0rh3eiRqUDkuYG3cDl8a95mr8XTRBJzQhjsYf1hcR0x5Px710jphogbba8iJQzz7zWPFl4NcGYzFiyYy8xnQphC3n3YQJwUd65VgyPvF4KyStV0RMf7PPU9UnCTb8CJnApKBSeloz/j9OcfmAbnOnl7CLDj5C4NDtoaHQnhA2HNH9lvZVS8dr4kYCNfriW3XwAFA82hg2/ZNTme9STp1ACcjdS9wV2bjhsFFTiT7bplkFrMv5jhLJHFxrwQt1JGGLXGOW6tg1EPIfAbwMhQBy2nUd6C5dmACmXcK+4TKqXrou2IihayiexfOYWDIv2G7ge5rxYkZxCcP0iA29Q7h+7c+Xv4pSPvqKRIeBuWDusZbDn0WvTJ+P3ZyyKLIlry041MHX/8NkFtqyulRca0AAAAASUVORK5CYII=;fontColor=#FFFFFF;" parent="cVnY-JXB5LHUISSboKDK-10" vertex="1">
          <mxGeometry x="170" y="130" width="80" height="80" as="geometry" />
        </mxCell>
        <mxCell id="j30cdUnKlF8bIS7Feb2P-4" value="DynamoDB" style="shape=image;verticalLabelPosition=bottom;labelBackgroundColor=none;verticalAlign=top;aspect=fixed;imageAspect=0;image=data:image/png,iVBORw0KGgoAAAANSUhEUgAAAFAAAABQCAYAAACOEfKtAAAAAXNSR0IArs4c6QAAJMZJREFUeAGlfAm8X1V17ro3N3dMQu7NDRkgZCAhgmFKkDEJEUVEilUQmX6kpk9ttY/+KiotYkF99T1tQW2LiC36A/sA0Sooo6IVEggBwiCIzJnMdHMzDzfjzX3f96219v/cS+qjdifn7L3XXutb31pnn2mff1I35/zf9lldnbHURf17+1DtC13Xh4DmFNb3x+F46mKUDuSjD9K0TZ9Fj3DiEbhh5xXx3YdjOSbHWGRXiSGx00Q26KQv15clZAM4yY1zAOtik1jpq0Ge+wApx4JGMlh7Tlg7FkBCLmOosE8zt4KbYu72tGWRWIqkiYK2XKJXNOWfg47LuhCHFn32809bGIublKMFofwRh3IVP3AUcNT5V3xDp+K+4odcOMhx4gtAysmlPhvU7NuPTRbyKnK0k6uUF1ZsuL5Ds71fGOzXigBquMCp4wYFIRRcxyIHL44vLDSp5rgud2PK2UdBzTY313NxjnF8YJFtyFl5/PtdLdy4f8flQD8UGNULeAB4ElGNgAgCCJETCIMUUoQE+0IajUIMciZVhSbhJ/GLjWtgH76oJ/2aDYz72UshAcRF5u4qdYXjgx4LuGgMBzp80Q9lCaWadtKo+ZQdc4EhHWTU1NUpnIHl1OZ87j+lcwqTH8Grp5P8c0DTnODE4SYezoiD0sld+mTfg+E4bAJf7AgAsXuMRgDIRgNp4y5kQv/ERSdazidsBYixPig5TwKhiDP5qxOBCcnBZShNjw1NzUDp0zM3FrWdQPb79uOoDZQDsJDEmNoAY80/aJRAaM++xkIubOwYpHvGXnzZc93iPzGl6bgcI57bCD7Mw5ZjUfazHZvbKGrZu0sfFxeaqctGmlHgbdY5H+pTwesaaTmRsYNwXAgKgE1HE40kipp2RYZG4mgm9IOCLi8FgspEozNQxn7asY7N3ff3RU41/0Smfz9w4uQi3zuA2rDqn3j0HUcBECWOUY0Ax7k1cMdR3UGrDga0aepHx/V1CNCkcy9OUXv5jeDkmnr7YYKZFqe4H0JYRz9RyqEldt7W6UA8YZ98E5d9FPplSwdKbfjXOYoO+9Cjf85E1lkkh5XiSDHtXCLgWtxV/o6gGVhLniOIZHoIqBgp0qITkXNcOiBYbhy0ZYDcSBKV40RABa3WoH7VnkY1X+6MGK7DvsuIUPzzoEjstrR3G6+FyUtKKVVc58ahxKO+Stbo6OyBuEFgQncdHp2qM5rqCOTx9UEI0WBwGmcYoamjWxtzVOzlHHKMK6CoOU7LLO4/dCSkQ5q7ltwydvlxW2poXPDcpT5HUErfu2Ja8S+FjIC4A/RpVcV3/o6FmwhHvUN3HJRytCmrjmMwxrOmAkpgVO1rshhOYuEz/biPyuyAD+fi0PTJTTkbwNWRA5A0QlcAIOA2bs/MhLmA0394EZT4cwZTSCxWYaWpJVnIoRc3ETqgPq5TqmvGAkgg1MVpyAaOs0/HrueO2Hf8mpzjIil1byc2a7VllzaAAOE8dVPXE13xE3h+inkwqSsewGChLJOkJ4SQiShTRg7SdF3KJROnkAGgoahR2xHDDB36TxiNS0HjxClHl6rq18bVoj0GBg0yG39Io02e2GTjxw62g0c0WGdHg41oH2StzfXW2FhnTYNxfGG0a0+f7ca2a3efbd7aa+s29FrXxl5bu36/vbZ8ry1dudf0RARe1O/TBd95+sXH40gm9K/AkhDZU8SiALypJArQ+5mLYh/qaUoMQtbNOufZvrpYBKgCetuD4nVJhqjzDlZkAgaUxpJbnY0b02gnT2+zU7AdNaUJSdJkD3Z/eLVnb5+9jkQ+9eJuW/D0LlvZ1QvXjp3cPHhyIi3nlh6Td023FhNjyPKm8RwKneKTCXRDprQ/WAEhajEMJPYrMiZ4EOKYeeJQu+Ccdnv71JbkYr04bX63eq+9smS3LV+119at32frNu6zDZt6NeP27PWZB+/W1MSt3lqwdQwfZKNGDLKRnQ02bnSDTZ3YiBncYPV5wOHhxw/tsH/90XY/cm/iTwp+8BWLKFf4B0Mmg2ea6/h4tS2UiLWsOOno6FUOoTN6KrBGURf7MvsxxqlM0Kx9EMo0g8GUic121eVjbOK4JmFswen36OLt9vgzO+y5F3faTpySIkWTIExjJyohPeL0NWy9tnX7fuvasM9eWhI6dAL/zTjlp01ptJnTW+zU45vtyRd2O4EkEmHoWi4mNAve0BF/HAA/NStjiiM4wpdSETHTb8at59aq/axzniEzkfcAK0GRlP5y3J2xz+KBe+esOQfZZ/58jDU01GGm7bE7frLRfvnoNtvX67okULOJAwRZ+hMmHcTMcrn7KH4dQDY5W+oZWBAqeuQrf2zILQVqFHnBQiPGXCRj6VKePKo4kJZccNzfRPrjVI5O7eA6GGg606Iz7W2t9uk/8+TdfvcGu/UHG2zvPirVQEUfzqpHnTh+VAMSxPTwC+XUc5B0qQG5Z3CckHq/FXjNF23SvgQLK/IvcrSJqklNAxbJUMfscw2NcNCTSc6BlXp6kE5CjkhnuJhVc5CgJCG4AIb8kg+MsMG4g9724/V28+3dIpJHTrFhJ6cyVId8UNyBghAu+uzgrsqbmo9Sz22I8al5HTp9KS0Bq9N/J/j+IsE898peu/HOHT5SvXszeREjB5N/gSAvlkyy92CCd2FnGkeIOhykgfNGOwDpINo0pBPiHX1Uq+B+dN9G1W4eDtWBvRICWdrjpiKSQSjxBKBYavZ+xOvtpGOa7ezZbcXHH9JoGMTodihwuQ7/ygGH6LbinyIV6Gn2RtzkxOD5p996IIUeDM2E5HUYuAdBKplsDW3DQx7KBNw8Nm3pgUqAF+8pSoGzFCHYMQaasDCpukiTnLhQyJE+u+yDB7Fht/x4iz38RI/HSmMWVAxGYOq7vcaw+/gFQ+3kY5vw2MMbjkt1YESFs92FhHP6QkMbB5q4GBefBKQ6xjiJdQ10slQmByZRnAScfYFAw11hfMBj3VWXj7W/umaZre7a5yykGzONzgRKOk6YuMR0MS8ZHkZygRqHxefk45rtiAmNeOzZZz98YCuusS7PhMlG3GNHO90pzdpa6+24Ixvl/4FHdzoo1eSAbsGRNy/YMDZPIltRxNOvt6TEIr16T4D2pC6+DIIRoV+yH32Px8dy3HWFaSNHDLabrz/cPoRnQF4Tcyxr10p7ukAbm0jJh8vcb4xjkP25Hxwu8+/f68lTB3K9rkk1+aMz4FXtjBObrRlvOrz+renGY0FQoMuBvsinJpMX9H//eqJ/VAqwGrpYCQyQQiIwi79jqtlv99Ajm60Fz2h/MW+0/eCmyfanF3bahEMbyVKb7NlkgIFFaMp9CzFkLK7fZ6dOb7XJ4xttPR687394G+w9oNAq/dR3OQH4tw/XTX+gf2A+Li8U0x8Ho7hvEekvp05NzfnARnf+NEbtnzWlGWe7jHBEMXVzVkrf5zaamjNKhJ+Gjvblb6y0h+ZvsXkXjbQjp7TaZReM1Lama48tfn6HvfLGLnt1yS5bjnfZvZwICET29AdIR0U7A4xTZ25c++64Z6vxjSXExb4So4gokYiHTxJTJw62SYcO1jv1wufi+lfi8gVeZ+/etdcBpR+S4sENDfRrnCmHD5zG/hjjqfI0ytADdFPfixgxC1B11PWfeHqbPfnsdnv7ES125pzhNvukYTZmVKOdeya3Gs6mLVgkwOscr2k7d+233Xi/3Y03Fcrv+OlmKMIRCJ52QqsdPr7JujH7Hnh4C2QiUALxZEFcoUJ+/MOxc2b7E8LPF+60ffFsyvD0oZANlDh+0qdbTxzkypzrOJ2aF9lEHmIGBgOMaHqjFhBBqBhuNCcloz7kcb0Ja/qR4xdf6bEXX91p3/iXNTZpfLMde1SbTTisCac0VmNwWncMb9CWdlkzUbf/ZJO6jG/uee1q3/6TzbZHN47+gZGXJ8zlyZkB8uYx+4Rm8dHpC955syBoclVDXlzKxCltSrDjA8Q19ApalIXtK9IC5wc6GriCbNBJR5QXHEiV1FSmCXzwu8cnPzLWfv3iDlu4eJuSv3TFbluyfLeTD98HHdSgJa3WVixntQyytpZ61PV5/ZejWSe22SQkvQsz9YFfbYUsD6RgxSXdO2+Mi7/XZ5zUYs1YkHj2pd22et0+JVoHHKclE/3m+CJAjSmYWi7AOw8O4+QrZ/oqM/APXQ+LnCjok08Yahd+oFPbyjW77ZGFW+2xp7bZbzEb5Tgi5kIDN5EigA4aDhbHQ2fu+R2C5ozc1wvWHNKBS4+MJIKWnDoCotTOmuWn7zFTG+2eb41Jo371cy/vsWu/iUsDimazLNGRL4mVqJqAPlGior/aTzt8SAbMrg6R7pgyl1VtNdg/yFCvqxvLJyhHH9lqz7yw3b5+0ypbvXa3HTqmyS49f6Td+JVJNqpzcA2XypwpqkBbvihkYX+/nX5Sm1Z1urr32oMPY/ZRm5TAR6sscemgrewzotChbOs25zgIs6URj1UH2tqH8axzvYSAQPxq2OG++OIwdFA46cpNxI8AlRlalGjTwE9myHOYIGjf/9BGm3fJaPvcp8bZlV9canc/sMF+8uAGm3Zkm5124jCbPKHZk0yscEx0Uaj4SlKchXM/5LPv/94dsw/aPlvTOQGIgH6InKOLKPzc9eut3l+S0PXZ3Yy1xi//1Qg78vBGndbX3oDrrWCw87/upwpNOeMn1/AVFZzFY4wrVBRhQAySzNMqQTQL4hpAldt+uNaOP2aIHTdtiN103RT73p1ddtf9G+yF3+7Ahmcv+oXzYp+YqFUwzqb8oH7nqUN1s1mzjrOPd96qfXL06zXt/bSWElTjQAOQN+xeLqcpeWaNDfvt2r/AIxaStxbX1Suv22AbN2P2MTHikkTk0me6CFb8w5viqMRfd8oZC+HdSyZLPTkGKEtUIkMQinIcY1d8Ypx94JxOqXK3ecs+JXH+41ttyYpdEaTbJNZAX7Sj7DvXTbCJuHlwFXsvHm8OVBY8tcO+elO39EWO/KiKwFiEHTXFPH2/+JedNmNaMx6Jeu3Tf9+Nby08dX1molFiIj+3Z4MjKEyyKtYhVPycgWUmxACPXqjV6IcjCHSUCRh6Z53RoeTt2bvfvnvbWjt5xjA77ughNu/iUdr4IP3EM9vsVTxIv7Fsp/GuzEcSHkkWkWVbJPv0XEg5r12DcModqEw7olkR+6xWk6k44HoiP2h9/pOevI14zrzyH7pxZ/frHqdCiTGSRH+FGzA5zj15FnlwFe2T5zzal0esX6apVAGVTvRTn+Df+9ZRNmlCi33x75fZLx7BNQVmRx7RZuecOcJOecdQO7gTr3OVwjvqho17bdPmXjw477M3lu+y79yxvqYBH3yXZmFS+NeDqLN5eD286P3tdvfPt9gNt6YNtHhKST+sos+DcDWSN+sdrbZlW6995qvdtmK1P9IwNtrIIuPM+GBXk3ub+hyWH+m53B9j0nvUJdOCwQ4GkiHlOhKEISD+jB+H2YDyxGLeLRWvvfxqj738Gq9/dXY4biInHDcUdQs+azbjQbrJRo1sxCZ1fd78TizEusTKqSuexFRC8F48w9cDFzxR+4hEG3LLg6qEq2925cc9edt27Le/xmnLD1riz6mD4rGoGTu/hgoPQK4V2LBRP3IhbtjhFGZWE5BkHJj5TSBq9HNGdQJCaZAWKc1mn3qQ3Yc7sgdDPjxcffbG0l22ZNkuglJoXNRs7xhs7XiY5hsJKdOGRUlwAqkuOUV8gzkM35b5/Pj8SzsJrULYWhtYfNSB8NMf7bQzTmmzHTv321XXrbMleAevlvRJGePnZCBnzwXa7IoLx9mlIzSiyAZ9Xw/klEVHimwmIypH4PpVUzGGONbDQmRXfHKcbd/Ra/MXbkm/wIvEy7GT5IembjzfrccXtyw6OOmzZMSDyaTOfIfPvoVPb9cNRnJ6ALZ/gojQYX/5n3TYWbOH6Hp6NZLHz6ks8hNO3d47TI5i5z79Kw9uQycKATL8VfGE531LLCCnIjYpyYIiXHBTFsaqaMMtCj+c/93Vk+yLV03A+29T4AQLuCem06CN+8kDlTDs12SOnf1Z+N7MsuBJnL4s4d+5Bg/I/uySdnv/u4fh0+h++/zX1tmLr2H2owycQbTXq52ggh9hKg/p4sx+wKtmmyJt+G1MIU3AokkdakA5SgYycD0sx6+/YTmOeK+9c2a73XrjUfaP/3uynfveDuvo8KfZtBfpAbjuS4ySWb96FD6sHzGp2XpwOj79a3wUInsWmcCa3NH+0w932IfOHo5lrz675utdOtUVg/R454Xef3E9UX7ky33KVyUxuIlwQMcxZp6T0RR/C+th6eCue7ttweOb7eLzR9u5Z3fa9GOHavsMIluKO+3Lr/fYq6/vxMLCLv9lwoa98aAL74WC8yDJ6ik288QhcrPome3+yRSnWdEJ28uwcnPJH7dr2epL/7jWnn5hp5+yxKK1bFQJK+09LRIVOXOiywIlsJeLcmr7ycszkxxxDfT0EZCePHG0k5kjQ+597yZgVUZH6zfssRv+daXd/G+rbeYpwzUb+ZbCxxxu73u323NPW94QtB6I043rgcTlQy8/0M+9/HUFTtnsk/z0fWQRVnhYxFWkZHPRue32Ebz+8eH7yzd02aJn/dsHbUvJeCrJT/5VPcbPPxxT4mOfusqjnsF9NGZguqkYUlNHwolK4wDrYWmpGkyYhp07e+0Xv9qorR533UkTkcDxLVgT5Nas7WAsMAzHnXi4f2zrB8MOPw8wuR3tDfqdzR4k+Sks1jJ5DFiBoPHBs9vt45d24hdbffaVb3bZfD7iMAlOX5OikjslRkJgEMkTRlhv1/CZC/ejBn3GzRZNpZU2ONb9jelZ2U5jjtMgGbPD57J0iG4Wyr78t4fb87/Zbvc8uF6/h+El57U3euz1JZwV9BZYaPIRqK21wVqwFjgEn0d5Y98bPzTahesp9WdiQYI/Jnryue1KaACQtP3Ru4fb5fMOFpfrvr3OfvnYtsLTOcubdInlqad/FynJUMlYqrX8xC7j1/V7wHqiTmHq6WhEgKw8VAdXTwJCSdlrMOjFmwUT0TCoz045qd3mzOzQ9tG5h9jjT22xRxdtxrrgZiVGxN2SDm0/crR1+z5sZuu63SkPVBKmap6+Cxb5g3qav2f2MPvUx0ap+42bu7TsRduLzh0uPt//6SbdUD0pbqVTMwHcCwOEJJJLguqp0o72yniKqI7isxdz6b+7HrZsBWeW2ZxZHTb/sU326atfsaef22pcbX7X6R127V9Pwooz78RwqbW3rMkdbHDqOW1nJhnkrNta6/Be3aaD9NhTW10fSFyx+ewnxmi23XBLl93zkC+KTp/WYh+7BA/Qpw3B9dDxS0oAr4fsqMmZPuRPyRRF6VQ5UE8YRTdwIaSe3kRy7YYh+KnqVm6YBuhJUCpi2213rrZr/mayXXXFJN0Bf7Vgky3CzBuJd+CZp7Tb5EkteO/1VygZBAa8BxAvBxzRzv1L0bSeyDeXxTh9t+N1jIW/P7z6L8dqlv3LbevsR/dtks2Mo1vs2it85dkTqmg0U+hAcWUABJLTWkxMhqjljvTYhlxIMTtpykJzDse7sDtLqXrYsWbRaSUHDBaO4hrIsQcf6rZpRw2x894/2v7X5yfbLx7eaDff+jtbiZ+53XVPlxOHc9mx5oyr2DtJOSkOnU2fzT55GF3Y/EV8u+nDSs9Qu+aKQ5S8W+7stjvu2mCjRw22P/lQp515+kFawXlo/la760F82VMivCr8IXMeb209MTInqPzkIW4kDT5s6ybCFrs1R+Fd9F1RTe08CTw8xOFjx8QJ/v2B9me+c4S9e06HPfn0FpzSm23R4i1l2d8TE0mkfUYJ3HyuAi/x4OrxO44forvro3h8mYFT+UtXjsNKTT0Stx4/o/Nfgp2Pu/B73+m/XCC9iYc16iMV34HJz2PjSBTI9scznMZTjgPb7+bIiQIFJrxaBBn2PDyDxh469wtSYEBEpEYUBuhBe1AJVdWbd9k4e99ZB1vXut12Ja5/XKqahIQePrHVTjt5uF143mh71+wOPcaMxXcS3m1589jR0yvs4ot+FZETmInZd+bp7fabl3vstaU77at/O0Ff2f79nvX2rVu70szW4IsbfxL8z9/t0vfoSXhM4rXzCfwyNosQhe0S8WegCIhjHqMfUKplnGnP2m1CEli0rTvhpF+8eT0QpxhLceQdxSdnlUDv/sEJNurgJvv4/3zefvOSk25uxg0EM/HUE9ttxnHDbNgwv1IINHb80N2D58UeJJLPe3xNu+u+bvvZr3hNq7drP3sYEt9uD2MWnzh9qD5//vRnG+36m1a/KZgMbuzowXbbDZOFd+5HXsPsQRyREM32DDzicyoY4SUFnYi61q/EycH0oxpjtBkQGaYt/ug6wVoefCpD6H0aanrTY52SR7VV+IyZLPgMd9+D3Xb/z9ZTxaZOGWJHv32IHXZos43jdkizHYw1wWFDG7TJDXYLn9xCnjYYN+1TTvDr35zT/PR88D+QvBtXKQj3D6ZQLqcYOt1Y4eFnAD6ED2mr9y9zCMIThAbb0NN1mMbcUBJPnSomx/DHV3uy7fFTl1ha0peSqDNpTBvBaU2PNGQVDbRZZMOBKJd8eKx989vL3QTAbg4FzIKXX91ur7yGHzZCN48if9HfgodoPu5wxrLeiJ96MJgTjhuifmL/cv4m+8o/rcyualJTga9M4nlnd5TV7OokUxiRrIwmbShOrGpy1RZhekGj2LvbtNcM1KyDnOmTojw6sAJGX3zhjIlh8RR5m/tLLzxEbwzf/s4KLSWVkXA8cD2xt69e64dcQxRZGLDmNvvU2k1h/uNb7O+uX6GH4uRJbJzlXsCN786XnNepHzaFVDEzyMJfMRHBJ4nkiMrFAEND+YJ/JUczwDmpH1jKA/1HXEpgOhKYIwpEzvjYQeUATIIOlHCmXw9cfMFYm31aB54NV9kDP1+vROruStrhMO3FnB0Sxh/5om+Uk+L0XYjnyS98dVlZQHU9qciciXvXrOF28Qc7cff138HwnZivfgoaqhlbWHnFYMKXeClmKXsSc5zcIh/kF4MB5clv4PMNQUoqMlAI3sq/1w1G9rFP/to+d+UUm3J4m135qcPtzz863h57fJM9+vhGW/zMVtsWM00zMX2IcySPDHiQULgsNhjJ+dqNK/FTOD+AGQh/LDkDS2Wn4h2ZH+7b8VmAhT8lue6bq+0Lnx2nRQolKJLEccZXDhL9kANj1Ag13Ln2HIJtRQKtyFOZUBzlm8iAIqIYeKvrYWn+8ivbbe7/eNbmzB5hF11wiB179DA7+z0jtRFz5SqsCeI6uBSfNteu22Pr8NjDH02W5Sz8+ziWpqZBdstta7DAMMiOmtqKm81gfIDCL7sww6ZObsWNqEkzLP2+gjXGH927wX65YDNmqoecY1nnDFfGIi1KUCSRomIJrkpqHOSSSPR5PELsCUYnbiLpigo8Tj51HdT3nlgH0CttIoWpr1SYPTx/gz28YCN+F9hkc07vtBNnHKRkjju0BXfg2j//qnn8r7W4VP/iyzvwerfNuMCwYhXu/gO4EFFJUDIwzHjwRy2Gk5ko46FPTWFBKcaIpUIbjNNXJp913ESo76dKGuq0zozLGLa8tRHHoWTjPe7dgXDQW9O12+74wSr7/g9XS2XM6CabOAG/E8TC6kSsDXJW8c7bhi1r8uNzYU8Pnwt79bC9Hg/my/DrhmW/26169do97kmBMB4YsaCKlvexr8VUGUcsYgplhZX2Tr/EJHGRhb1sQkh8/BlwE6lcb6CQxR0i83zdGbAeljqs+Wjy3W8fb889v0WJW4skstB+DX6xtQbBL1yEj+/xjFGCxzi/8ing8vzBjPiMINEyM6gLudIQwftBo8wXHKAS2VGrJJJ6KrTz7Kmbic6aYx4zh2u6LhUtmRNGpzCVqoQgL0VOg6iEwYH6FG/Het6QIXggHjbIjp12kB0xpc2mHjHEPnz+WHsJ18UFj220f79rDWYTgyvGjl/BzZf1VPHpBC+VQKkeCGqQp9/oHJq/aOBDNH/9sBNvNlTOoGVY9YcxdYlPXPWJ6EUt2mMgzfxSkBoYhGH8PpAdFBpglok0DJ288OUh+wnK+plnsfKBcsmHxylZF1+22H567xqdgke9bah9bN5hGqdu1Z5CJi1lUqIs9VD7imj4Zyr+P+uJf3z2CL0X8+PVrt35/9wgAVVcOgJ2P1mEjwH5cA7OxVOKfeSGH8B0JgbmoDFjLv2CnxJBlBZIuf64NV1CFFB5OKTBa90ue997R9uM6cP1FvDIgg32CG4kt+NZ8IXfbLVly3fak4s3uzYgiCOkgkO/fgZU5fI3QCeIeCVSvuNz38XnjbRPfMTXA7/2rVV4rNlTOL/JTgLsAj/jdzHYUO5kos5ZGGM0lTL604+73w9HBczHXIVOBMgZIeAaSOqd877RdvXfTMUbQb0tX9Fj37tthf0c64T+rzZdnwdZOKwRMPssLqOODrKuhZwhEuR4hZtweJ1Eg7+8moPv0JdeMMqmTGrV0tdNt6yx79/t7+AA8b+wl10FJ5xrnLvCLXQzgTThWH97XK9dUkkgNeICPhAs+wzKwXhEgFxxPAXXvS9dg19qTfKfYGzGKvQjC9bbows32FPPbLFdWHFJmyTvEMTxonEJ0Q9fGkkVyJqwHnjs0UNtJpbK+MrXiX8hxcKfFf+fb6zAD9x73I9ssNPfSgICa6AvYjg/Ndg9cB/2mUzq100/9r5Y9YmjEAoDAfqBR5DiEm0GzI9Lc04faRdfeKgdc3TteyU/PHFm8qayZGkP1g73aP2Q35GZWF6v+B9N0If+AwouLuBBesSIRq3ajMZy2QQ8+rwNN6iJeAzyf3WpGPXF7867u+0/8CnB/4G3WHnigFcN1i2UGW9ivBoXuhz0MTW9LR0fLLipV3f8MffqP52QI5kCNE4xB+9PyHEhC3KlX3UI+3HjWmzWaZ0289QRNu3tw3RxF/zv2fHiXQL6T/T24oecL+Hnc49j6esxbEtxjQXhmraoed8Dj6FIVia0GIT8QP2099x4zNTT83AYKIGa5iXDkTAqRpLKa50wYvxAhDiOP76OKWW54Uv/hPGtdgROcz5McwH2YGyd+PDEL3ZcUW7CrGPZzdmIjR/n+RDdjX8FsG79HjxE78RPQ3r0MO3/7IGeDsSFKCLCANipHBRYlJjYrp2OqVvqil1OKEVXxUQbD9K8dcuPg8fLshyVaYlGGLomrNIIAl5QPRieMmFE7roZcKXG7I0lPdoKjmLkjoooavY/5RxJis6NaqkPbB0o9AuXaLsK7MSR+MmfiF4K/Yq9sMXZk1vVLX4jvvSp50AFT0LY6Jy1EsE+UNSPXzWpHfJ0QHunRqIy4E520iFeYkrTcTlGuduwneZhS0EU/SqMfWxuQ0dunxw5Ji40k6rbuxkFMlftSRaA3Ms5FVlkwKrWL8+swgg5AP2+W1VEW9QoQyNBPMmOn06qD5QeBEb4uodCO8nYr/nzNkXa+vuiMO3SRg/PgSXg3DmAerByX2FPJ46jAMjGxwVKMj6esRGKhf2azIXZDw1qRRM19PULVZcwXJ8BmbiKBGYHXg9jEnW6OwgA3Ip+3sp6YhKkFanpQKkN3PgoRGjq0c9bWU/UuQ00hQpgn5XowT75KqOBy7Z+YkdH/0lJbuJLsowTQj4RqkjGlo5C7aVcBpCRBivqsSggb/bbU+6vXCFWP5wIxzHytUwsQlXY1OdBkYnPiPSVtTjyklKK49OeLqjHkngSUhByNStnRi15Hl3aU4+FhyJGXEBZYPlvpEOJLv1iCXUoOI2wkQHkPIpoa9YFSFWP8jzi7jRch64OHGNnA4W2bIkQGvKP2gm6DhWScLEJHuwHgmMRd4A+Nar4bId7DOAv3UQQzt/1U6x4gqnsGAsbqGsPUAFA8EK2yAI/iVGOLfXoiGBZi6CLOKIxjVMhMNUkEQmypqqAPScYK4SlmzcrgoauN30vU/DnDHYFyXMqMBHk4T6xz1lIEUpyyrgyjipn2vu410pg1UBIFaXsE4R6VWORhAJl6Zz6RQ9ydMIGTRDOU9dxaqSLn7RXcP3tiTXwJiX8OJ2TGzzJJ7QDlq2QiRNpQRYBqI0uuWm1RerceUmurLONhga5iomGD2RCOKI2hnSUmD1s1XH2VWjPvwFIWVWvKnd97Is+/Vb60aZeYsiecpWiTIcp9JG8JlYw6EgHLGSJmVBKluKAQsGrAEgc/TLubrPr64HUUXGHJE0F1u4Ue/Z5akRNddejMTevfJZRiRguF0alL1xCShY3g4CgXdqmPUm4riulvDybuXenkH6IE6eo/GcyS+2Y1MlxhTDQP/ocr/onv5SVa2BRgN9+gMWhky9c5aj05IDAcOXCxIEsA65pkxD8FHU0qnqUo4gHhyIRLk1+0SOQzLVLFa/jTiH/GE5qGqRdCARR9e/W5UZT+LsizGoxIYHeSbKZ2VpCa9l2XVwn6DpBkrzokBQbwAzckCAJmGlpkzroq/Sr3TZ16Sf9MV6/pFT8y11Fp4KdPl3kvt5sT1COwQur7EJWziaKg2PWsoHs/wHXDEDPcmvaeAAAAABJRU5ErkJggg==;fontColor=#FFFFFF;" vertex="1" parent="cVnY-JXB5LHUISSboKDK-10">
          <mxGeometry x="330" y="130" width="80" height="80" as="geometry" />
        </mxCell>
        <mxCell id="cVnY-JXB5LHUISSboKDK-31" value="" style="edgeStyle=orthogonalEdgeStyle;rounded=0;orthogonalLoop=1;jettySize=auto;html=1;exitX=1;exitY=0.5;exitDx=0;exitDy=0;entryX=0;entryY=0.5;entryDx=0;entryDy=0;fontSize=12;strokeColor=#FFFFFF;" parent="cVnY-JXB5LHUISSboKDK-10" source="cVnY-JXB5LHUISSboKDK-35" edge="1" target="j30cdUnKlF8bIS7Feb2P-4">
          <mxGeometry x="0.1889" relative="1" as="geometry">
            <mxPoint x="906.25" y="-9.5" as="sourcePoint" />
            <mxPoint x="1231.25" y="-10" as="targetPoint" />
            <mxPoint as="offset" />
          </mxGeometry>
        </mxCell>
        <mxCell id="cVnY-JXB5LHUISSboKDK-43" value="Step Functions" style="shape=image;verticalLabelPosition=bottom;labelBackgroundColor=none;verticalAlign=top;aspect=fixed;imageAspect=0;image=data:image/png,iVBORw0KGgoAAAANSUhEUgAAAFAAAABQCAYAAACOEfKtAAAAAXNSR0IArs4c6QAAGpxJREFUeAHNm3uspldVxvc5M9PSdjrQ0nJpuExbLLTQWiuUS6glIkGMN2qsMTFeSkWUi5hY/pLEf7wlXoqiojbFa2KiRNBQjbdCQYtcUugNECilNrX0YqeXYZjOMMf1e5619t7vd06ZFltwnznv3nut9Tzr2Wvv9/2+850za5963hs2WltrrW20tTX6mEWv0TSXPX0BiJiKM0Z+g+SDM+His9+8xtufmXAv4sZ8s66Bn9GJRxfqqxcvbMWPSHOOdcrk/IWrXri4qMcY3xsDvz3G0TDQ09bCL4kxltPWCHBoLigmiktcFZ/g4tQqkgO/eXMhETTY06ZME28PcE7wmJRrxrMuKkZDVzFjEkd4Y+z8k36ccoAfrXR24wZ49MOXWgiP8XoF45TAjUNiKhESFs4eB04RvnR7xmwkvkK8WHNjk4Z0Vk6Eks/5kz071kcjdm7iIacYjT+UGnocQZ27WzXo+CRmLvwhRsvmLFvYA7vuUDvNlZXGEWYXSCpGEVeFEusQDYyBM1JPghbFNiSu5FA3iiGDZbOo7s1x8ai20kiEZgoVMmKrx7gYJ//q5grcY62rctF7TB+HDI7Y3e0i1wQJvs286zGOr2pK5mCZukdHO451WIUPTMU6IR78uUCAMSxhvoVsJC9245koVXRl85zrZrzW43WRTWQj3msyJUrAp5SeB4xy6ZZVkLQS2NcU5sLDHs/AFJdFxM3QDd+6xVa2VFKEBJfYjTWPvTilkQ8+5wlWm7ugwhdG6x4CBp4ilixotNiwROx6aYwI2cFXnnUfCsuvLTaewmBfzxjozYs1WnQ1l3744wsvdppu4RJfC8UxbH4mShCOahHsGPKMhEubxROR+Qot7IgNQXi24KwYy+1wQsVRJVG9Ch8T/LT5ERIzG7EnnsTOkYUWkHEE4eMRJJgLBwHr1VcE6QRKvYJGZR2WC1NCTsBaPGgPufpVkcrkLIopPp1IMoYBkezaoRAE1DsbWbArxhdyLPH2apEBZEFg4aBJjzBpSD3a1AzC0/HKN/AqUAQUn0gjxuVITozgIqjnU2CcwKybpxHvyuapCyd6lByO+NICxWfkEu9dqnhIjWc0eFbHcnIJgfDp1TCNcJlP4lzc8PnVfpFdiMInXALAS/cUPmvsseLdUP5uywWolIyzFX67Vhj0vebaiphH7Fo809yY5xgm+XJBHUkku+QXdscj2zjDvfP42E1c6XWauOp0icrbxVApM78ZwSfWBNKHzadz0gtBNOWMfuBRVmCPyXNYfCQp/eB1ApOGPOF0shqT0jYspBgNosK6Nzl2NfUTXvBC+KRlGQaPOAceiPOELSbOaH/P42SZMiKCw6kGj/IIXxnNOxIL7lxd94wPv4q3xPcXEUItyAJKNIJLqGzxDIK/bKStce8TI84ZH9i6PSt2S3zyG5/8ZVOBsYF08+3szcMCd+WpOYUauseauj9xNV/owxgNW9nr/WncwuFhZ8KpXVNoXlK0brdhUpyIYkd0lxeee0h8xRQJ43Ha8ZjxZ0d4NeVPw+POf2475ruf33ac/jS5D3zy1rbvvR9r+z9w44T3YyAypJ58cUvCylkLHqlYVBQbXOQbeB2wksNhUys8k+LsIiLz2ie+6bUbem4FoCfR2DNAAzhIZhvvo5TAS5GS4npE+O3b2vFvvbAd/apzxLd62fcP17R7f+mvW/tKFIuc2qx4JczVzppq3PNz/ALCM1BaU7PGrNFO++K6CS9P2Sk+Ny9vY+RgVxhQLOzKRLS9nM4cy2BrH24QD0HCuuOw+OIHsdF2/ejLVLxD9+9r9779ivblD35SVEedd3rb9frvakd957e0g7fc2fb+8ZW6HYUu6YpEQ5VIBt9yKl7YWaNTDjxhYauTVuusUKC+O8yX8FDrk9+fgbgxAlQfSIBF7H45h5w2xwgvnO3lq2dSzcGOcbyaHbez7br4FW0jTtedP3tZ2/vu/2hfueu+dii+v/TuD7e73ny5fDsvennEHgN4gbcOxIy88JOHCmkco3p22Sdn58nFC1P+YFgUeIEPn99zkNeZJIyUc4NEX84Xsfk+cQoqfPVaSfiBJKxzu5gWVhRHnPH0tha38Jev/nR78PpbtAh8hT9wwy1t/4f+UzHb4tkozjoOxKV+9xQMNAHWzoyGpYpQdxhkHW9mxbpyMazayMqbaZHHbI2Ps5Z+XJCJMHvHW+0s0HEjufhrt1NU54I3ucWEX6/ozrV995MEP3DzHdI7cztnawe+cIdidjzjRJJ2neWXM3OobIoZ+ojri5/xc9Fm3WEvHXB7PP+QwfvAILKzAjyXTZ64EENChmVT7wQMHcLcCRzNHkW5wBJAXH5rwjjtB2+9W6btu6M4U9MzKUDE7Ximi3zwtv9RBFDhScFXGIqvhNajO9N0ZukgPgPpdWfMgQR17g517riSK29hIrFkB7EypEBcstnIz4MWqrPUgcLoBJoHvh7XxzNXxkW3//qb28aDB9tRL35O2/Hcpydn6IhTSjviec9oR77oNMXsv+4LktqzOyRsHjgns+nEMbPA3gsvXWQottCXsdXjXYyzOGxuFDCJKRCBmaRXXuC49K20gbiK1VjowudCnFbXrg/+xBrnZ9LBO+9r9/7Z+9ratvX25N/5ybbz1S9qa8fvbGtPPLYd/f3nthMufY18D/zFVe3Q3fcrd+HVO2XXlEeH5U220J7NmLFm5gSrj6HvHJnEUeXNNIrjxK597JSL430gbr9VAQhtvZz3nsQR1+eMsUWb8RK+sHHIecmPaP7lRtAv8RG2Y1s78a0/1HbGm+it2t73frTd88vvau3gV8Qz41mYODFSgCmPuMidMcztd7A+T8w1y05h8n1m9ZbP+sXW8SrgIJQMORU3BddyTbhFgYu5iyuRjl1dUFJbSEyKH6HHfMfZbef3nduOfslzpHbfv3+q7f27j7R9/3JtCs9FVK5pM2qhvc+Yklc6XM58E678qrvXLnFd0aSx1kR+BbW1j578Go5H/EsDYjy0DR+Gvqsa9Hf/UG3GQ+A4RiWaHHW6h00Bmd2x5dv9sd8IZ2u3vODn1WPnTkNOxeBgTB6axgRoEnO+NE+gurIRtLLBYSE+whLnIpduEIMzfBgUrYEnfh7YUM8KFEJSTa9YMRmWmGRMvRLjZMHFJxEEgcNBr2teUnj5ypWhHYN9NUaxiS9tFedYiZNG23m3sMguCizge4sxeIo2h1f+/juRMqi+CIHEazVxkYYvnN6dskVgFde7XSelhCQfTHBCLR4MhfR4+XkiNhqLoOfkkL7yi0p+vDR4JTtiWLZscan14ZUHHpwp0ZyJD46KJ4Qmf/QDnzwf2X1RvogojggFuRApVK54yUZ9hekhq0oM0XJ7Ac94x8+0nd/23Ar/hvb74xl6zyV/4k0LJchkfdQOtatr7ZuA6toQ6qL1uwbUgo3QB6p15FX1YKXvO6A5TEt795c9e7YU3/+X4qH7SF6MpnVRuJDY2//l88T8SF/82pnOmknquGOvW8JqckcQEptC0bw3RI524xmv185592wfO75uTAK98zHxP/UsXHZ2n7icw2S7OcecIIdGQDvp6l/VvF+ycF5X3obhpIjW5cga10ExK74gmD5P7M9AwyDKDGkwUSSS2be0ihWfh3FykaD345lB+JGtaDsvfMa7h7Y/GtDWeLgXmYsEiXjDvwkftvo8UnH85AKcgk9r2YSPR9D4jdwQrDiIspGvcqKOW17FBx/8+jwQeAEJ7i2H+Gaz/SE0Wr9qQDKMEwdT4Ze2QorjUfo8ES4WqIae1ZT22B1+uaOX9AJRsEUcAQSHncCixxTT6U87qKyN9ALRR6sdoD/5j97YHv+yM+14GNczbvzdw0Y9cNUN7bY3/IE3kR1AsORJifLrtKfPeqBlY30SqmehXrDcBKmt4olRlgW+sjqvkRwK54Cbw6AXEGmsAhIZhjkQU+1FnU5sj6R4xD+cxgtOndLqKQ4K5qWgkUW4GAzzOESkcXOv0HbrC9+yiENPFXOCb8rvVPC70OBoWAqPFv9lAo6JbS6YQOGzeyznmme9FlfH4Z85SNTnwtd2TPaIOf2Gt0Mztdzt6QTihEvZc6OZSCeJ0u8RdkZccGpivB3WFWN7iF1q6rw9YBwusbLYxPfPA2XIXzuaclwhJHfn6y7stsqvuBHVR3YK323iGLOB/9o+T7RG9BhfErWJkabrDEdlrZzUmXIWxyyNWtGInRtT4vUMtCMjmYRjjtfuK5sjHeJdsYVoqXCnbD5xMHU8URGmWyDitTgT6ArMsY5DROEZPyU+5jrmvDMmxKM75A33nkv+VIXRIQt6NPldAgUufV4TFfOLSH/pBxHfgdZCGJYp+rnVjioRxOGMH2mUUYVhKDKjerHgjzb7ak7J4YUGxjkG/GNZPDLyhtv5EaAFYJaOrl8WlumF5PvA+BvA+GIBtYiMUyEpvcK9Mrm+9abLKuTR6bW9UFHEoqSY098npvmzZ79ZulRnEKUrDBoH3jbji42wiqWf8U+tN9xhrOKAIw49rk8xpT0Y4tMY7zougB2ci+B2G+vZaHuuvHawPEqj+99/fTCl0KyedWDLZ1qttnJOWrtCFlp4qa611aku8HKtfX3hXuLHfIv0io0TGD/CID6+1eLdoufR8wY3zRCzG5/5iUsp//jpAZDCHKidjeHZn/lD0X3itJ/yrodKfCHpsHgBI46FmXUsBJ8WKS5NMspl0LnKNF/L3yf2pEFnvBVUTn56qTWiRZ8HOjXTaABzFzWtnQ7Bc9zyZAqZl+kUQ9fxUA+Gwg9LBIdWYvqpk5alnspUGpd4aywfsSyllrO0L5BFK4Wlzfhaj8T1HbVG/YWqDoQWKpYolE4gWXMntbB8oTntnT/XnvDtZ/WEhxvUSfxqcdzCt7zu9zI9Sbn10FWLZF5jF1SnWaZ5Wzgd+Rmx4n0vQWx4zKlDTApv1sFNLAoARBQjXSu/GcFHSPicTWFJAtDZ3GdCwqF7JMUT7cO4HHv+83oUqUd+zC5mSupxDIirpbt3oQsfAUu86lGI+uR5zAdn2gIPxHnCRi2U0X7sehvD73n7X7p7i+CKeGU0qEouT2sf3n2RvdiJTZz6nGOqM4DdkRkrX2tnfvodwksSgsOudYtULlSbv6YOFjcmFgJ/7wEQA1mO5Y+7SI/1nsSKwM3N07AJDwWFDH6Rxlx4+vxvDoAXHyNhEACsFyXTdCmxkNOkd/LLFkaSdh1kVJMj7DXPPOntHWHKP+LwPfu63+4hj/VA+eckLDSa1xUvpgTIUI6YY6tvOSlm2Dip1VjSMsaeslVvK3jHM8fHBvGwXm3CIS98jnMEYz61eSzbvn/75Ph7nUi0mr/+SkL2KADz8XkgykLkfCp8QLyQ2Z6hOsKMq5gaT6eqDhwJZzNxkcxdXi02bhSRxYU+Qcavtf/66d/v+ma++mNHNAIDt+hlkmUFP9u89kRaXritC0rHQk+LJSlH/zyQAJ8LsDHiH0GIwbdS3Bfe8k4zPYpX5ZUs5y/qkX9omgtubfgk2EHFEyTgOe30LMp8sNd49OE0nnpBR9gWeHjCPV6F63aSGMOcMMKwxT993/Ovn4DyUW33ve865RApiVYaUvWVrv4+cYpT8WJevVbPPL8Vmtx+nxceVUeejit8yVjgHarNkJTAr135pB/2B/BRZXZm4swCagP6GA7tJD3RCRA28ZCfe/PlhLb4ywfzTsTG29C5oAp8NUZ9vqKt26cYoLaDjBOV2p71Uf91w03nXiLqBe8Cz/oJ0cWxMvh0Vs4FPib9RYTjxUOxTqIY8sJu1I5oS8vOuSjHV8UTt3IaxDHw8sPBoPPXwALwDC++ET/wfqELj8BrO7Y3vot3laPbM/fq6VbhAtTjJg3k9I9yztVdBM/fKGHO/3MjVH3H4KWNnYtgm+LaE8MZeAiMJ6YwGV+d8gNewYvX7wbMu8Q7rV/xJSD5arzQ4mC5dAkqh/t571lqzqgFPmxk1/8TcVl8hBWUtwyEBOHXLRHjakXGDqkwBDo4egajFc+wjMIQyloEzYl2HXsuCVzdQmUqn/InARrR5fQxrmARZPYsnIslYmMYgo+vyuU1Spl8YsjF1PrjbYwBShZPQ6+BgrGAFB4Dx9mGw7+LLcEP/XniC/JZqOTfwMvYZFY2b0gWjDXySVQUYFE4zcNXG5OFqSIvbmGKpMBIUL1fsZQzbDjGuBK5N6bGex6DV2tnfuTXBz4Qb8BdtwGOxZRW1q1GEfsJxVbFpLADyog4vtf++YkXcu56Aipb1TWm5rlT0E4xVNT4jIYqsxWv5iQrFdH3v0ZAjdIXnnwYx2eK1z77daRJvAaHwUPgOEaVFz0Ui/mwKQAJarPPuiZ84Kgv+go/fRoTRhARUA97GEnIF16u1fxjnS2znaDaRWJrp8g6x80ne+GIyYwvDksbDIUfloiUfPD5I6e0DD2sQ2tMXeLmUi01zvkpGN+0pd3GeBsTjhTd38J0IaD83QsRU8WBy+8wiVwxTCh2OPkSHj+v4LI51ry2gSh+OJ/wque3Uy57E2a1ky97Y9v1ynOWeDwlQDoGl/MrgCAGgz/m5LJRjuGrwvd4oohN7QWb8Gv/dPwPTn8fmPszHdE6qmHqxxbabo9d8xj2wmMjaorrYzsKQ9+54o/Mn/krP9aeeMFLhF293PM3V7dbf+HP28aB+CPzw/x9YucsIZm/pvJb8sifznmtxYMWcuayhKGO/deaONkZAC7wdNzZBciz8hVTYh7Z54nk8L4ihjVU3pPe9D0q3sH7vtRu+7V3tXvjhQjJu15+VjvpLT/Qjnv1i9uDt9/Tvvhbf2sMq4qmE5X6Jpnsp5vke31KKOHT+vq6c/0EISzjGGvN3EXBqaKqFvo4ayyCbODm1m/r2RjjoJJF4mPYnzs9LgTHeDPeSOGIRUh8bz9hV3vyxa/Ufyj87I9f2u76y6vagTvubQ/esafdHeObXvM2+U686BVt24m7XDThuUABDwNNfcHEm/ep1Yx4jdMw9BA8Kr/A9x0nn0n7j3JlEDHkETAvHjtzcPTiYh7ftOw0HxyZJaKNj//hpNjN+J3nnNrWj9zR7n3/de2Baz7XeUQe+L3XfL7dd9X1ijn67JPD7E9YtHGVJrlRWRqMR9+sFUBpmsHE+X9hKX4q/jxnTKPvr8IKqCrIXfswEqdZHaHQVHqNV/HaSPDjg9jiWMUf8fQT5Pry526vkBIgoWTaf5N9RzyNWGe2hipYQv3xSOAlIPGD1iMj4ZGWuPC1aIfF82FCICie7usigCy+deKipzHHrZ45X5NPJ1KRwzd+Zs7nT/Fsga/CPe7Up0gF3PUNLeMjT30qw7b/87dv8mGXpuq3wCti0pzDxTqqHvjm/HX3YVOu9PcTuAjwxtUGklffhsaQox3/MkyE4E3M7WlPbYqFBCQJBt5xmO//+OfaoQMH2+PPP7Mdc/Yp4ioe8Ed/8ylt13nxd4QRs/fjn5d/VlAL60kygs6FZUNs3PqOsLPzaNFaZo4gcoxrFeOQv+1Hjjz9F0Ubx5XleNGyMItvB/qVx/ZlTMaCT4609I47YcbM4wra2Peg/oT28S89ox0X7wMP7tnbDnxxT1s/+sh2/Pe+sO3+9YvatqOOaP/9tve0+/W7EbTR3K/mGB6PZm3L/Kt45hSq+ME/hH5K8/e7LpjeBzp4fd0Hc04kgV1skE/848cy22u+xFPg4Ccp7+Gm1he3bVs79TcvbifE25Wt2t3v+VC7+ZLL27oe7kkWQiqP+APY+cJQmRSTAaWvCrUVnvzmKdFznon3CgooEZZcZEUw94x7csSluhmPcSE6MA/F2fHCdLJ2fPzUccKFL23HnHUyKduXrr253fVXH2x7/vGazqXFJYG7zNtp0Meknu8xJM8mv8w443toJa5W0vVjSwKipeGKYy/gvIoYgw5v9KbLoApIEFPaahLmHc+EmLwUYwmQOZyacypNhlnjijO+0BmnqIrzRBHK6YIVfku+BZ4MEjAVbKs8UtLrUrzxKgw4KKLjAaqwfFjKZ3r5lCh8PU6+xAcPMMlhkHEkIoUfzjAmXony1TkWjp1GIYitbxlrHpPCW6jSCGW8X8AK65zOvXEo39+JA4gEpK4Yozk1MPQ3ttQTjw3xVlTi/bAjGg6cInLfFzMTRwytL4QxQHq+YoK06uvVXX4lYGSMc2URZTPeAbr2N++2BUHmop+11kL9biAXk5xmGjYJDp2b8Vtx5ntYFjW3xOdf6WvJdmdlLdRqVcgwcFuoMCIzo+aBrHXVzopMlc24Bd42YnhLYf60HebvE7Xo0FEMng8Bls9WRkn1gytZXBjpj5OIxofGd485DPe6A8XP/Xo8OFH8JNJXzh4GOObzz3+4K0Rii3D6MSdNS3yCWEoup/MQ//X6PBHNVWTrsNq6M2ptsmr5xD/8zxP1OxGBxcQpi7saon56nELX3Lnuq+z8HZ//+VU6heijC+vNIrL5+VcCYe/wni+MypG3ddgVhJ8NY87OhzafodyasFlT+PHUnPhs3V/47O0OfKrR6QoOlr/l3yfCKR86+LVmXEazECWTHyfkbsJqRz23qPIOW4mVqM4zno1SF+EVl8gi6PauQ5tpvMRkyiW+WDhBqVu98zCsO6wWRByRSScC4orXcBezxs6SucKo/29aP1r5AQxjihBzCSohTldJoKpbvmwk05jQHGtYvE4BVM23c25eWMBujU/eIOWLxrXfjko84TMAs4bFG5PS2u3d5tzSkHkqVja9Gg98fqQ/DM7FWaPlQhilCJmnS2ruglbD+qZMGIa9AEnQnzs9zid/M97IWpSETYXpcHKEGONRlbgcDbwRmjvMBq4xr8NRRkJoKmb0+f9EqmA4+MyunjA8B2pMMf2TCOD+nAkSj+lNTAJuGCT7mTISFo6faGoRW+OTBVK4KFLxxXgV7+g5/yqe+dDNs57iojI+VyaFmjQxzkrN+gko/dUH0pESGIRzc+mWoojQtxY0orfG46fwS15Zw1RcjlrmwabaCX/4zxO3yr8oSs9WWtxbgzV2mY/g80TfwiBV9SSnODGcRdVzsorR/bFQbN6pGf/1/TyxNqH60j70Wts8n8fGccbZ2Cqoe/lYcNprjul/Aa75Kwsq53MZAAAAAElFTkSuQmCC;fontColor=#FFFFFF;" parent="cVnY-JXB5LHUISSboKDK-10" vertex="1">
          <mxGeometry x="490" y="130" width="80" height="80" as="geometry" />
        </mxCell>
        <mxCell id="j30cdUnKlF8bIS7Feb2P-5" value="" style="edgeStyle=orthogonalEdgeStyle;rounded=0;orthogonalLoop=1;jettySize=auto;html=1;fontSize=12;strokeColor=#FFFFFF;" edge="1" parent="cVnY-JXB5LHUISSboKDK-10" source="j30cdUnKlF8bIS7Feb2P-4" target="cVnY-JXB5LHUISSboKDK-43">
          <mxGeometry x="0.1889" relative="1" as="geometry">
            <mxPoint x="480" y="49.5" as="sourcePoint" />
            <mxPoint x="580" y="49.5" as="targetPoint" />
            <mxPoint as="offset" />
          </mxGeometry>
        </mxCell>
        <mxCell id="j30cdUnKlF8bIS7Feb2P-6" value="compute target?" style="rhombus;whiteSpace=wrap;html=1;fillColor=#1ba1e2;strokeColor=#006EAF;fontColor=#ffffff;gradientColor=default;" vertex="1" parent="cVnY-JXB5LHUISSboKDK-10">
          <mxGeometry x="630" y="130" width="80" height="80" as="geometry" />
        </mxCell>
        <mxCell id="j30cdUnKlF8bIS7Feb2P-7" value="Lambda" style="shape=image;verticalLabelPosition=bottom;labelBackgroundColor=none;verticalAlign=top;aspect=fixed;imageAspect=0;image=data:image/png,iVBORw0KGgoAAAANSUhEUgAAAFAAAABQCAYAAACOEfKtAAAAAXNSR0IArs4c6QAAIJhJREFUeAGtXHm0XVV53/fNeVMmZXSJgiJCFioiCE1CCKiharXUJdXWAUdEVJzaP/pHV/9pq8t5qi6XrrZYrV1tbdVqRJAhQUSDEoeAgIDKIAZI8ub38ob+hu/b51yS1Vbtfrln7/0Nv+/3fXufc88990Ln3nePr5ROKWUFHXu81GMoebGa06qDbR3THqoV2nGA1t3DNlri05rjjkCopA1lRspewNAYzzgcO5a8FbwjSdpl3+AZJ+eOJ0xx4JzNnLpjtuQc0p7xo1bk2SdaFNBAR9CzEDNSc1NATJK8RpjTTzYysC0DtBtVDEZf/tNYJo2di0Yv2IW/sWkDJkGAKo3RrxCXvd1kx1kTXhpxbMf02Dnbl2NGQ5OATFlQcrHYMYltueOslB5buFBUrizbgaTZEjhw4Ae5o6rPAJStLDtA+hrJJGwXJK0QTMrZ+0XwtGN0x0u7xFQvn7CPse2oJQZeUYRuufWKxyHsiKL8q6HjqnChq5h0iTr0aB3gTaIEYUwBi5BBLbRcvqEjuZxrQGfiJLO0CxkL7ELDDEMvjjEUHzL7S115UCo/JWf8miexqQ8uHFqgkRZVRaRYhuw9yMUxF7oF/7CllW0zT/vRXSPExA6kkV9JnqErOAnamuLa6mrFSgSnAEJArny1DrwgSHETk+Nm5yaOi2sAh3dyAkXMQ/0JChvmIrcWbwjaeJw1MRnfL7qpYMCp+Ucs+jQvGtqnh071XI9AAqQN5tkckDITMyGMidS1E5kE0dPf9tx82YSbO4buTCiUGoevkiFxznV50BDTvA4lF6RBG2IQlwPOJXC/HLu/kUdBYJMxqXMtlJX9a25eZKUmXPoX7ECSp5Rx0TloykxQhGigl/wkamwpM2BbZmKKZm0Lv0mkO6aL1i0ztvFN1LyywOnTYEKPP3qYD7xywTKHFpdkSFvZw7bmkYWXX3KAHf9g35Mri7ladLRoXnA2IAPYsatgsKU+baiTe8Xo9nekiJd+adsmSpnmjstTVHwrAHFl1MT31PNql9w6pe7EFq4gWn419+rfzd/2KCZ8tANNktW10O/ErjZxSbJuc9pwhXRO2j7j0Iag0gUh6jyEjwwDVxOP7c+xbVyUmMOOhHVq2dB2BtNYvMXLBkqQ8+QTtm15O4a8REUHxTOSYys+uQkneXES94G+l3IUEuVuz5U1OJ2DBf1ZPBk5jDRx0KkiHs1O5ZRbnk2FAJZlElWZ9C0bxbBJkM+47KEwZHTGrD6IEWqYNvwzt7ogCUVjFOLQ/JVMk38GJhCa3oU1wulBViyUioWpCUAGjcZwYh2Dqm3lbDD7Q29ja1KlNAI09G07GUeclHvRImbLR0NxTY70ZqAWf4pgmGdFHVMuW6h1FjVz+zf8zcNz5cz8Ye74lPNGWkEJYkGdtyybRHJXGZS2Wt04nTMgKygfYOS7tvHbMZJGW0YSnLsnfp2LX9i2bi28u4geOvporM4JC5DJP4q/dpGLXvOWb5IgBvUUEj9jeExdH03YHMPBRdxiyOltubd9ztk3QFxN72rYdnrK+kuvLf3HPkM2v8theW5/mbzigrL84G6xcNQIHGcEFaRJfqoYBZJBmHKS0FlmBB5hEgf607Al4BDN+XtMtbwTB/F62gWyg52Il855vViOYqaPbQzu6F7NzuiR/y/FI3LP0JoyvOUvVSDHJy9qvDPERQlBJM7suNM4oR1byzbGeWrXN0NVD3bYCOmaeeYu14mm3Q9gLd4KHiYweJS2WQCNFFikkglXWA09yeUUQwcjbiNcmnig7H3PidSGvOkTpktHYbgTpjO8vqy9/LbS/+RtpfeIDWXp1z8Kg1oZwfCgotJHEpUnJ+JmWgEOqwYBMk10lYM3bSCgjE4a4qAxewZIH36UY6MxQdmzoOi1Cjjwr9FBHg8bWDDb27Y5fTwnIptshE1QzgOvKhmPMqnVc0S75emHytzNn5FsaOO70ZNj+AuLKvPOHZVzmpljY0/rCGUcqtjUR/4xp8gYFGTctj/H8SbSnZgD2o3JtYAtjCKSMvTxyntHBu3gGtjVxAY41RYCyjR33ySWcqBj1ee+/ZGysnSwDDz1wtKz5nj5uIj0zvhOhhLqLG9wOGLLGHkpcnxipC5zZd6Jr6Fs0j5xuCv1OEu5iAyRTIJGlMs4wCTLHRg62/DI1iZjiXxSjV7J83RAS2z18qXcSaTf0sR9ZX735/C+1FuGNr4rikCb5BlnQvKXf/vs6NYTVwUmF5EIHhwHRsYmV46zmJZTYI6U43EWW5OQV9dznc4YCkOGIac95ganAoA4KmB9nigBNPaRO0R5iVDMxJAcKl3AjUeRW6fM7PwAsJfL4KkvLz1jx6Sii5eTM4fMh30tlgi0+BNF8SNejJWTItAWLyx2Yksc+VBHOXYgjIjRUshQMhKyG7ssrntis3D2J9GECRfDCMA2FQsGFkMuXHU4cE5iNKDCdsuP3FUWfvLvpdM7UIbOepsvIdB5cYyh+PSRf7iHP6XGooHxk4vm1MdZwaET0UiLqiJSLHz2HjCmLlYUWNhOlIECDH2brEkEEHS0M2b4OHYcU+ZEU1VjxgLan/EYFLZanLQuZXbn+zUZOu01pbNqXSumeST/xDFf+xPRBXJ+vkwl5/SHTXKRW4s3ANp4nCV/3AcKHc4ByJWQjHN6whgmuvBygFeSJZC8aRM6BSKRRzUHpK9tc0GwdIpB84YLgzRzyg8+8MOycPv20hkYKUNnvrn6yJ0JRTzi0t4vSp1P1/0drH27lVywj+hDjMw/MCgiVn2KU+XMMXcgrRQodmIURGR4TUPSTjjsaEsxkTF2oR1IotDbhoYcOSBHbBSlbfaShy1lLoYE8p7Z8T6alKEzLimlfzT82zh5JnXLumOzoFlkYgd/AmOaXLiwZOw5rFhYtejD1jswJoSr25gye+iYxWp2YhCJO/c0bvsougQmLHgwSpKe48hY8VIwJkWxDhzYf/EXN5aFe3aWnlVry9Dpr5dp9Utbpd0k6eIRiwGAQ74OgiNxPevCYUiaVzvPaV93ouKU/CyMgP4nF++oJOGAesMgYqwEbTwMuwwGed5s9645thz73onUHLafv/Oasu+zfyCddjn9yZ6wSUFDFnWlcBcOPGFjWfXsy8rcTR8vZWk+cG2spMUt5sSiP88q9p4pxiH8+VwPTS6RJyfyg6OhGlxiNl8q5U4iAp3pCE9D2lmJUWYk6aQPmeVYpakHy8J9u4n0v7bBJ51bBk5+oWMJF7GDvOJj1zAQsTk/eOdVuB7egtuZo8rg018pGcuSetrmqY9hbYLWwblJQQO8KBZ3OUDPMqdchsS3HaeZJ807t79p3UoW2z3E8CcMW5cshUD3ivo6kf52ip0Ztup0sI+YBe7IWa8vq1/0/rJw783l4U9sqTEVv/qIhg4ZZ+DkF5XVf/xPZWnfPWXfR0/Fc9Al6JkOGvz+p5i2CS6sCu3lkL1xumX0Cp/YpdSzkHEbI9ha2ay+3Wgof/UaI2r2ZOCxAes8fIQhg9YuIRz009+7oixN7S0Dj3tmGXjSeRWHg9wR+a5tHMdYuPXLZfGhO0rv2ieUwQ0vtW3yAK7CMT6rk/OIadzkzL2aY2PLJ2yJQJhmx/kskJwKVFEFrAIGrA3AGIuMZNSFPki1rW2XkrQNcnEa6hpXsTBYnCvTOz4qyeiWd6p3DPtjzYN8qNRBh2AzO3xfuGrjOzDPImTcsBdPZsHmYjU5WJ75Vf4Uk69iY6hPVpyjRR51UWCLb+Wsy2NzvwStY0Blgu3V8xaGiSJHAMagGw7ZEzcv4PkhPn1oM3XjZ8ry3IEyePym0v/4M1u+beyMTzTL53f/c1k6cG/pO+LkMnDSC6wInWObC7nnLnP8Rl45qmB0tg7sxeOw+UcttBlg7x0YK0hABlTQWIUEpcYro1EUiAGRHFU6WGcMjoElbCgrdsptuzI/WaZv+JQmo+e+yz5WKXEOs+AWm9/K0iI+I39IolWb3t2Kb71ix4XMedm74ZZz9ypmFcVulT8XT+ShJTZb5IwRCmiDrCjVCZY7yTbUNMkIM3GjOJaxaIEBAf+qP+Wx4ys2ZFM7P1GWF2bK0EnbSt9RG2oxxIPuwdG4gQfp7M1/j2eGe0v/404v/U/coki0JgHht+4sXIQsBntzTG5N/o3OHCOeeKQPewLkDkyCDB2GZpOrKVZBELcpMoIuVoiKSlBWXimTMiEj4Mj6xnVFegiWZ/aVme98VibchTzlZRg7SJDa6ZbzMiPZwbkycyPuBdGGN/OBa/K3nXFCxjNKuWURGSHiyI9K6ywnWqPnLGtT84den0SsSGMHkiwKk8UhAcpdGI4twBGN/mhxykrFKZXhI1nuwNBJDcXkjo+VlcWFMrThxaVn3QmBbX9hwN7xCeZYlM/e9GlcQyfKwPFbSt+xp8OovYMiPqXwcSxMZONiMQfjB3/pQgaHR+tpW/MHUjxMSKLe+jTJplUUECUpj55yGXpO8Fpsyrnq+EebJDl+/rvKMX91V+k/8qmWSdHBG8L9Zebmz+PBaU8Z2/J2eBgzd4PjBKYmBl6ePVBmv/tpKLALdS2k0r4SYmxenLXl3bzSpos/7GuxMqZAAweyehvDReVtA4Oo6hjRR6dbXXGTS70ItU4NYQsjnNkpsLE6w2vL+HnvLL0j68v48/4idoUCi+jEtR9CvKWy6rSXlZ7xYyNxxySZipXj4DVzw8fLCk7ngZOeX3ofe7L4m3z6RE5x6isnYHhxXAyOjR8FD+4Z0/HNRflziBZvIhFIxGyUladRBcnihCzlBrRfk2gQohgv4o2fc1npGRgmZFm14QX4pu0p0hGHr6WH7y6zu/8ND077y+g5b5POC0oPJ8oRW42JBVye+rXeUHi2jGzm/SRsMWbobE2xjJMxqa9Y8MucbG9v4Wix4MuJLlP0YwFxoHF1xBdCCW6ZnbhqbXkG6LIhOAOxRyOxTGRlYLSM/d7rJJ+769vafePn+8Kv6xN98Jq85oPyGznjVfpaUw6B5fjmmgXBRUcxpnd+GF8+LeKTyUtKz+rHCyu5sefmyya5CkLgyD+UWQvHolPm7+siJYypSxt0OoXbgZS0ceWcc+I0zUnYTxxkywrXoiUxvmlgxcY3vQGPoVaXuTt2lIc+93q9YQw/7cLS95h4wyBP+Bx8YE+Z2/P10ulfVUY3XSYZk1QiLRJKJOT0W95/b5nb/UXs3r4ysukd8nMxZGRPDM05imJVlZF75pt2njP5LAB9M398FqahcHjgWBMHIO0kbjn0sRNTJ3n4yRXgiaM5EfqHcPq+SS77v/k+PAS4D5+Dv+A3jK3vdMwwZjd5jT+mjZz1utIZHCdC8CI/74RMqB1/6np++bRShk57RemMHtHgRsIkkAXimI3+iXHIQomTCyc/4vDe0q44tj4LSxbbuglC4iacWzt9FTQnXB348o/N/hzjhWijZ7269I4+psz//GbswOslP3A1TlWcciPPvAgPBY6zbdjP37MLdtdqx46c/QbhNfEdS/eCYQ9nteW9t5f5PV8unb7BMnz2W1McCSMXSZIjJx7bkGPbtPlngXWZsaHtoordT6QldCHsSEEGxDj0wcRwFPPFlZGeLvDBRPKevrJ662Wy3X8lHsnLfqUsPnxPmf7Bv+qUG996OWxpTwDEh//E1d6FoxsvxQ4eti7xdUFjjErBseA/fV08ZDjjtaUMroHcdsanPTcFOrzYayxZ8IfMi4W54XW0DyXOzcJ6GwNhtG5QCy2jTayQxBjzdCZgzJNckiKDsTNfXvrwZHrh/j1l9ifbw5Zdpxz45vuBsVxGz/iT0jvO73uZnAs5/7Pry/wvdmnnDp/5KieDwopLxJStEBsOB+/9QZm/4+rSMzhWhs+6RGspE/jwT0CqjLEYs92oSv65oIrZ8tEQfpTHbQxFCegYwfgQeQMKn4jtgAxsHPp62FPWnOdTaf83+e7aJoc3jF/fWWZ2/6dOubFz31r95Qvbiav8JdLoZmDgO2EVjCHQZAMC2i2xIy3Dc8Zr7Td81pvKSt9I2NonObpPLIJG/slRcVzwxGUvv3pN5TUwDCtgbHlB00HkOANV2qY+xzI0uVpRyXBP9owXl/4jTigH995dpr//JWFIRVy8WH/tQkxGn/3q0jP6WKmtwe9i9mwvC3hX5g4exs21dpAsml3j5JB8i+fC3TvLwi9uKj34ddeq0y8OzOzsS/rCizwSpysH8aQBG63pG7HtEB/lZAOFKutzn/pcLTpynBwzGGW6q1cAH/JaSJQ1z+VHslL2X4V7NJyqwovVi8skTu0fl9kffw032KvK+Bbftgg34k/GtXDs3MvLciQgHHHKhWMUJ5e+U9d4F45szN3b2NImc3Iu9HdLf8qtc+E4PtzzRP02BrowJkhUmD2zREsgTaqes7CNojR22H2nbCuDx55SFvffXya+8wW7cvdGo61fncJbGzbeaPcMr8Eo7fC7mFu+hMf3+OyM+8XhUy+UnfQk3WpOnEL7zv90ezn4q5+U3tXHlKGnv7zKrffpyjIqd/YehB0x8OrKHyK15OaZbqR9GmehoABYeyVoyjlBm75bpu1NEzSart3m3bfvqo/hM9qiZNYlDg0pKTjdbimzt/LCj08rm3C/CLmLi32ML4wmrvmw7Ma24gaZN+ZoyS9t9ckg8LIYU3EtHNn8dpghceHSyIUzKcrtGO5ENz5OuVBpfmj+8SZiBWklFqvsrSsZD0GgAQlZ6FxY+686cVMZeuKz8IXRw2Vi5z/KggcTPPzzxH3feK/sxja/MW6ezYCXlanvfb4s4mnNwDEbytDJ26KIyc9cXVjvpPyYNfcj7N6H7yp960/AY7ILXUQWj9cikaEvm/04csEi//YO5NkTPpkrGcT3wk5NRQqQXOFcTQWRjrbdAdtBqVu3DV/0oO3/1if1pNkBTYC2uVslh4CI83d/t8zesbP0rlqDNxR/30u5sBcP4tOJv3waP4+P/Z0Ldbbhkc0FkZwHXHenrvugNCPnwI/2lHcVhrL0deHsb7l1dEHOMEtbf1sYH+UUOMDTIcmwl6wqTDLlKWZPcoPHnVaGT9pclmYnyoFrP63AJp4kWz19OI3ElyZ+pVnPqnH1esd33cvUd/5BO3rwuGeVwRM2y1GxdcjksBhxiifm7Pc/X/hb7f6jN5TBpzwPfgHImOLsUBrrlCWjzJE6568wXXJz1zWwJgFw/tkYvgpgQMpSrh5z7STGQOOi8jqz7oJ4573uM2VpbtIJ1RVPLO86EY2E+tYdh9ueP9THu8kbrzA74GZMfmcyuePvFIvPFNm8K1wI8ZbQPsmXT7nzq9ORLbF7M5fKS3BE1MtnBoZpp5pwcSjAPy4SesasbyJJVM7QUw0b9TpGsFxB2tmnWaGBY55aRk7dhtN2thz4Fr5pM0AtggkKVLJ2zNW44ebPeKd2/UtZ3Hev4kpPjCA7scOP74dO3IIvkp4JDCj4L17ijDGbFlfjTpnG9y3LM4+UgeOejS+fNkpv/nT0AiQXk4UM+QZUgwfUzCFjxiN9KsTFBvQkdiCwb36VFHa1oCZLm/XbLteuOLDzirI48VD4B0GsWgZln7uX496xI8soPvIxqQNXfyQC0J6GToT3YCt4fD95g3+1P35+PDglY9rANAvNsaY8UHxwpkzd8EmNR8/x0x/HJzaMIhdhsEgBkHP23HzZJA8f/JdKDq53Lmhol4Tc48QEZk2YKAFmW8frP+L4Mnb6i/WL+keuxBdExBG2/TFstUiYNpCPb7209OCR1/QtXykLv/ppxOcFAXYoPHmYL758uu4TuNW5pKw65fdL35EnlcUHb4tCm4eCwJjFr/whnP72pwo/Eg6eeH45+m8mW1w85H3j/iteotodPn/YISmnziJ7jB3IEU9HvhpcDpt5JEzTuhSuCG1ou37bW3QKHrjxizgFH7BQcLRrCsaCtHE7Q+Nl9caLZbnvyg9AGeQCVwocxBM4i5N7y9RNV6g447ovDN4kQTt3HnAigb86nbr6PeDPHyId2gafgtuj6gy+MNFcgxb/xkgg2oEJFyWxoyciwH2pVRFsWAGIMhr0rT26rD7rIpBbLg9v/4iS9Y5hYF5xuYM45q5yIw/arN6CJ9VDY2XmtmvKwi93S6liGUBZMIfcFXSa+NZHy9jZF5fhZ/xROfD1v8aC3WNQHgFs7OAZMvpPXvfhMnU9bspFG1x6MIBx7kjuePuTHBz5QlN8TFiHFGYM3wfSCDoR5w4QkB3pwjl1tGFzT5nH65/7ZjxRGSgTu/4DT1juhnXq6GAWxqY35oHDx/ZrtryRwrJvu5/WaMLiRbwwjVgMiN8k7ftlmd6Fx/d40xk773LJzI/WuViCkC75Z1xf0BoeiomDOJJfLJ7zs12Tv3MjFvVd/52IAkFTgWDgVSF6axwRadc7ur6s2fQKSR7+Gh4aBLCwMGarRIBGkcX4nuTsV8p/7u5duIm+AZosPL1MvManJBKj9sDVfkAx+qyX4VniUQCFvfyDv90tw1Ex4S8uxKYMk6Co+SHxIW1CkkmAGkxY2MQENYz6eg1KWepbyUFlF9z3PecSfIYdLpO7ryxz9+4REXnqkEmZH0WOBaxOb1nzHPzaHu0R7D621DGroKQENQ5ZxtWzxB/68f3Ylrd0+ad9Vidx2ds/8aMo8k6ZiJiLYjpvmtC3jUVZ1yN9roBbJt4ULxRVT7BefGJYt/U1kj30VbwBsMUCeIxp602n/Txx/MyLSv/aY8v8/beV6R9tj8QyPr0Rm3A8qJmThkrEzxI553cuHfzw/NH8hSEQ+KLXDhJAE6fBlyIwHItXbBcsdeztS1ji+V04hBlQTgrMA5tXwcEMSue1Wy8uvcPjZfrWnWX2ru+reFpleNA2V4u2HGctSWzd894q5Nx9mtAPRvJlxhm+xqfMXHhqLdz34zKz50qcASNlbLO/9cu42RNXb0Do80dBycs2tMhmnilPu+78nVfmhE8iUdGaMMEApC5WgohhR7HGeAC6/jl+A9j71dYbQLWDb1xA5N6Sj532wjJw5JPKwYd+XiZ34Ul1FKWxAz3uZPqIl4LKLkaxQHhgwVsftDF879zBl/du9GWjv4sSCVkcuDGpXVMwi1gktm45ZV5EbgR/FgbJNJZSXnCs92xBQmBU4nnf5j8tfeOPKTPYedN7dkjmAmCopGMnsfYUxSKwX4dPLGyPXIknLPGkWvGrrSDkk0VN7AaHoHyKc1OZu/MGnAl4isNfPrDwio8OTvzLhCXnXRWadFTxlS3GioUxe8dtFqHGpw+UXTswA9Vi5lsQgQXm6uNjQ3nsBZcq7N6v8FeiXhEKMiBliUN3zokxcsp5Zejxp+L53oPlwA1fkMb+trI/xJpGvLBKnDwVvcPxRPtKf5W5egs44XZKsXRkzIabYChSEZMfY2Szrd/tIe/KHzrmgFc+VOBYbyKVdOA0q5PXI/o5EHVrNr609K87Bu+6t5bJH3wDRXNqBGTjNDGkimKwW3/B22TzyFWfxM875sOWIpNTL3+IKg49oQ+5FiZ0BJj96TVl/pe34DP1EfhMzWeJDe+MTx+OXTxBec7QtXXzz3jCoE3GrLUAq10XHYX/ToSOri+/esv7rVwAecLE85Vy4t/uLEPHPLmG/U0HSzMHys/+/GlleX5KrhmnU/8bjODDTkMwh1HGT74Nrw6+L3l+OfK1eAz2O7T7/mxc3vkf3CevGiewJQ9ePoXJjytkd6+Mqg1XlR/WnHPr45Tgk5bftvHnHHu//F78qnRaMROHpOopgpjkohdjRibJRTtMjnQyt5kf/leZvf36hPuN+7lbcSbRi3DMtb4odQyVArPUaVF3vfRommIMI/zzuHLWXIZUyU4DjOjTtssx4CQnGINb7gKxRCk/NKaMhdvsNgMkdvYuMJFc21ZMZqf4RkvOzC85N3HSJnAImHklT8maOI5HK+evd+EEh0wJZoVdcSBAnquOoVbAp5GvK2Ks0CRge/twbvv/y/NE2vJ/WHHY+NiJbbkXwrKMKb5eKUKJMytMznrjEfmQq0CujvIPnc5EjDXlIZrypzzelBxftzFNEezEY8rokBBZGAd1Mm1b621v/yRDhAwoOB7wSuy2j09TqeWVc+VLIDXjV/+QEVD2LBrwFT8uO45PQ/LPHEiEtjKWjzFTZhxVs+VHFHrSVp9E5JSSAKeRrdw7EQPTNIlIDgD2wpGuCeBpQ6T90Y46+ghP8T0XtoPAwgkndnNvSu8WbsVpFrJCKA5n8ZUqh7p2wj8++ZhEcIG6nXuNQ3HN04uA88UE20R9nxPEA0urSeCaUNJr/HOVM1mZw0xFjlOp298kZCdoz2UvYSwYMBQ/Q0LXFYOcgN/Ep2HwUnyBh4/l7RjVlj60566Vv6bi38R3LG8E/f8DfWFPQPAAFxAnhg4G40VTjfEre028BuGgJMJGawNzB7c/8elerzvSN6Eotzvt+eKMPvZnoQwgsUykEShxIQ8bZsbGo90jV+DKRFroAZD5Kb5CRDwBeCFlTjB+qA+A+knEYWiYwcRNhgQ3XOqJYtCUC5wy/oktWdDKfdfYxmHHCfHcmviORallEZNzmULPN5bqG3ooFT7i1vjwYXGaFvgGg1P6B39Maxw4aQx/cYmYzFPvwt6yDEyzFjCneCUh6j1uZO3dJX9dWxKLPfEaXA1bmI7X6JkgZ8EYg+ATogYLVlGPhpNxGs6Gace0bWJm0RiQXFs8OOSLXZUfmr8e6cuodd6bmdllQNr45OKoadIjUNsu/dvFazw4cgLN7sgiQxULIHvi5jMwRldSsTVyLMNHx6cQmDial+fmRaHlUX8qD8s/eSanJv/G0w9UESwbA7LifllKLeX5IT5JpW0lFoXRinWxd8Hs52KRTI1BW3KI3ZquwoE8bbOWbZw8e8wUEPGuigwwSWnGp8xjXcI4Fdjh8k8dmPHUBVSTP2fG6f59IOVqBMwXgUIsWYwfJaONyVDvgLrQKhCNG5Kpp7S+OFBLO/RxzcqCdes5C9soSmOHknMnUw/cyl8yo5gvdeYqm8NxEDZBWvEClxLfxlAZF8h20LpD4JABTKYVFK6UcZe4RfEYkxf5CJzF9Tzk0hHAnqlz0r7epCx3StMTg47k5nfXNg41lNs/+IfMPpzgxaY+bFhkzOknfylTB5kudaGDzX8DyzrZzCUqNMsAAAAASUVORK5CYII=;fontColor=#FFFFFF;" vertex="1" parent="cVnY-JXB5LHUISSboKDK-10">
          <mxGeometry x="780" y="55" width="80" height="80" as="geometry" />
        </mxCell>
        <mxCell id="j30cdUnKlF8bIS7Feb2P-13" value="" style="edgeStyle=orthogonalEdgeStyle;rounded=0;orthogonalLoop=1;jettySize=auto;html=1;fontSize=12;entryX=0;entryY=0.5;entryDx=0;entryDy=0;strokeColor=#FFFFFF;" edge="1" parent="cVnY-JXB5LHUISSboKDK-10" source="cVnY-JXB5LHUISSboKDK-43" target="j30cdUnKlF8bIS7Feb2P-6">
          <mxGeometry x="0.1889" relative="1" as="geometry">
            <mxPoint x="479" y="49.5" as="sourcePoint" />
            <mxPoint x="580" y="50" as="targetPoint" />
            <mxPoint as="offset" />
          </mxGeometry>
        </mxCell>
        <mxCell id="j30cdUnKlF8bIS7Feb2P-15" value="" style="endArrow=classic;html=1;rounded=0;edgeStyle=orthogonalEdgeStyle;exitX=0.5;exitY=0;exitDx=0;exitDy=0;entryX=0;entryY=0.5;entryDx=0;entryDy=0;strokeColor=#FFFFFF;" edge="1" parent="cVnY-JXB5LHUISSboKDK-10" source="j30cdUnKlF8bIS7Feb2P-6" target="j30cdUnKlF8bIS7Feb2P-7">
          <mxGeometry width="50" height="50" relative="1" as="geometry">
            <mxPoint x="539" y="90" as="sourcePoint" />
            <mxPoint x="589" y="40" as="targetPoint" />
          </mxGeometry>
        </mxCell>
        <mxCell id="j30cdUnKlF8bIS7Feb2P-18" value="ECS" style="shape=image;verticalLabelPosition=bottom;labelBackgroundColor=none;verticalAlign=top;aspect=fixed;imageAspect=0;image=data:image/png,iVBORw0KGgoAAAANSUhEUgAAAFAAAABQCAIAAAABc2X6AAAAAXNSR0IArs4c6QAAAERlWElmTU0AKgAAAAgAAYdpAAQAAAABAAAAGgAAAAAAA6ABAAMAAAABAAEAAKACAAQAAAABAAAAUKADAAQAAAABAAAAUAAAAAAx4ExPAAAeyklEQVR4Aa1beZxU1ZmtV2tv1XQ33U2LohAQBXFX4m5ERQUixiUu6CT5xSWbgybRKGPUjGt0EjTRmNGoicZxkomMghEQEwSDRoMdkBAX4oKICjS9b7XnnPPd+6oa/Wd+v3lW33fvd893vvN9975X9aow+OCq+kgQiZRKAdogwhYH25J1nbFUch1gMIdZTVe0JXmKwdyJFBpw4ulnLSkQRDDriFAGeiCYU2KYCi9jgJMEGD3J3NDYaDALx6QqKUHwxCkTAyIoiKEAjQQ8W1RoobOb5clNEGAO7AkMmOCIERiVn1IE0MoqEtAA5WkpygUWP/kq6J0tpFWHsjVBwQzEAQJQreIwACUyW2MrRQlQejQX6aVIrAt6ZOCJamgHmZnQKdLDwAIxhmYVWyZMm8WmKvCIH7IZXi0ZxKmOfBWXckJ+s7AlLQNxeajGOZBZGXo25WJZRLlTtVvpia5Eqw0Dk9LsoLE+TWRBSMWUlw1RCNYFtROtYIBSnAAwezYY6MhAFEsADm0uBeLIGVlf5ixfmo1O4hXIGgcQDI2pJQXgPAUBVjgMb5ooziYdJ3A6pAlozjpxPKn2HkNf9wpp0eEBu3kJQwdTQDx6Jc4awMEtEIHmSFjoK6PRjggEHmI8Icndi/HAHyWf7XhbZ1hVDwZiBwdahrRkOF9eZ1DTgEYKIlgGO2ixVTJaWcFAOF+cpiOvC0WkUtsymNAykNKkGz/borZPGNFIjBZGJUJq0bvlZQYKSnCECUMERYVWDVVUqrcKUa8jCuvt6uJqQS+jDNldx+QyimEMqH5IjvDkMaPBwqxgBk5eTIlSJL0CQIvccWaHQyvNCP0kjlqNmY1ScicmJzezA6khMZpCK4sw3miihZEbepoyFyMMtVqHvEgV6ywwhapLswI5BjdrQQO3zkqb0iqQjOK5xEZPj+F+4QqXXwjDGzWrSEe+XbmCsXLcr9pjJEGPfV9IWhRItxxj4NgWxDp2RxGJXxBuQrrisEDsuJdclb4sVgKqchglamCLQwfN4swOXmX9rpR6H0ZM/gcvHsCFGly9qQHZ2hVliRGiq86imDenHI+KpYFojZPquOVERVWmz5ipzhwUntuYEQWSxdS7SOS3YpkfzAEtFfrpa3ExR2qx8fYgUpgohQi3iloQzFEi4eYvOPvCm2IOTZvO8pcwlc7AdIDNLIyiJfVDU2GBiMSsANKDEcM7WnYcQPvL93chpJPJVl0km/nbTYtOoQjpqrRoxmvlJtHella5idju5C4M57SSpBnBzBkGp3pjoDf/mC3sfhM6L7mjkSgiuB2FlDvLbIHM3ahIJDvdyC0HNXgf1mEDdUnh0ZRVWVEADKmcMfLgivQ8CSXSFyclE9/rmFGXvlj/1ZUEOBFB+pKX019ZFRs7XUYKFb+LYr4mJry5gE12YejBw9XA65GLm4NEIeQVwTWsi4ESXDB0gMH1gGpbOXW12DVj6ZKDfz4Mu7x6vAVdozVAtK6lduYtVQfNA4CYaCpSyAAfrR4dH3MALOmvPJ9tf3D4+etLw92kAjkjS5M6PqAtZlkPw0BYlPM4uAzo4iW1OlOx0QEGcBRTMNGMFw9zhmSx0xhaNK9GgTBnU2SEGUZvwZB7DFqqpl/SePk6ZFvKZwQQoasOuUrFQqRYSB16SfprryUPuJAm6XFytMl1h7BsMen0AKCXAjGYj05PrqfTw6GzUBD7QhCv3SJfNiaannqoUJIEY053Q7nSixa8hEfPRYrtfmjjpavTc+6KVjdkNz3bee9hkXxG0fCU4nOH93BXz/3Tc5tfiNa21Hz+gbqLnguap7KCjtDIGdzpgQunFEWdECkrRyP0lPF00fuwl0ixqp/isXLuQHS9P2sltXoaAqCdDLOqzlDYL0FQ3VT3+buaLl2Z2P3gQs8HPf89r/vRLxQ73wnp/P53hmLHm32PzBx46uLiwPb4nsekL345NePWSKIO+hQRMAY1tKnSRxUz0i6jCWalzMvLJ8zloocH64tO2xhjKucfPTm0FZZRU0blIrH2+E8vxK4++MLmK9prpn81UioMrF648+5DMhuf2kVxCK7IIci89l+99x6QWXt/BBfCEVemL1sX3+cLIAdY/OoobViYEsPalNGEeriS5uX0c6CcSxF+AaB6GJ3de8BkSNJp9YQSRAW0WwoD6ppgJDjE26aOOuOu5F5HYJh954XeJd8ubH+dE5hnOUBSefDesctRzPQMLJ2fWf9IzWl3x8ceWnvW47m3nx1efkWp511lY3JEB16S8j9dX2Ann7YasZh3ETmShTnzCwCmEJoIlRCTh66lac6gZnFt5eXEOAAl0+nZtzVfvgbZFvq2df/mq52/mJXf/obFNyofQvzmZToYQ5vI1i0SFD5q73/ouMGl84vD3YmJM+subU8evaAUTZq2UE9IS712TXnxPOujofTLT2gUnzctUBgLA8ubrV5AeKHa25gQpgzDHj7w7NbvvFp3zDdBNfDiz3f86JDh9b8t06qgwjMwD330sa5vuQLkZnTTU8y8+kDvzw7IbngsiFdVHff9ukvaYxNOVmJaIV59lXi40S4C7V6/MGEISxNvS7AIig7q5EOaLN4bYCE1p/XCjBhLkUTL5NGXLGm64KFYfVv2/Vd23HN8z+KrisO9fKvzy0V/lV+BFJ1sDFq2KFuDEY4pkznYgTtZ36MzCztejzVNqj1vSfXcX0dqx5oi3fks0P/h+VkrTHakyoN5WkjcqHB1MEnNqmNpow2S1fWnXt965YtVk44vDOzs+t3lO+49Kb/1tbAo8KGscmLGQy54R5PpSKLGyicLGl/0spf0RCL5zS/0/WL60B8WlLIDiSlnpS97LXn4/AjuPn4ZpIrxXDiutfW5NgxpWQgQbPpGozcCRwDsZlHLWwItcOKYWVTvP7tx7u3xpj0RafCVR3qeuaE01AW7QzKEEuUHIHXwPUP9mKqpp6fn3BlEY/ikgZYgdUq54f5lV2XfWBIZ3GF4ChQJI1pHmqOjxlWddGdy37kYFbb/bXj55YWtL8FFYNjohddI/bKgxpYbwEqYvETy4CKTwhaa8VggnUvx0Xs1nXlH9dRTYMtuXd/1xLez768th1FRXDwx4NNccsKxdSdekxx/dBDVhxzxfbJB8rl3nx9adVt+y4sMKAWKyjqSTImhF5t4as0pP442TEC5cxseyaxcEBneSUI8Hhovcxupn4SYE9WmrzfaPEy0OihPAjmcDXe/8fX4qN2KQz3dy27pX/MAagQMAgtJOsAYGqmVSvHWfUadfkdq7xkmA+3gKw8O/eXhQs+W1gWbS/lsx+3jY80Tqw48v+bIb4SY7FtLB5ZdXex6mzySpFRH6klUp466OnXkd4JYEks98NBhJk8C4MdrUhavJxzi6zKbVKK8eu0ykItbcs9CAcgWpw9vP7z/hfuZqA6wa2/wTqN0yVN10LnNl69CtqXcUPY9bLxIsX9H3zPX5T5cX8r0YYijlOnNb/3rwLJr8ts2Ypj/eAO2d3LyaaMuW2P7loRiRBxER+OGueHh1T/of/goeGGpycUUAeDBkW5DVGMdB+B7lW5ahhEpEN5FHQ1dGMHgW+jdTk7h2dirbCmlT/1B0/m/iCZrM5tW7rjriGJ2EPi+lXeUsv10swDEU0ipWBxYdSc7hVzXfUfkNr8YTdWnz3286thrnBjCWFSHZwd/QaHrPUzg8HbgtJRGSzstBncwfrTUIR+idWit5CYK2X08Q1TgWVryAo+LqBSpP+ma+hOuRBpdi+bvfHBuMZ9NTToBG3ho7a89WxjIxcv8fXFxqCux+yHYoj0Pndy/7BporZ1xfdUR/+oQoWptc/EgnD7xCuH0mAbbC5w05dqBpl/fWjpOnOwhBlP4T4ftIgzZ0YXq7HaCEcqshQWbv+awefUzF6Df/dR3B1/+Jaaqps7B7Srzj5V4U/Fg86aHfLFnspk3fo9xct85sAy/9NPBFf+GYe0ptyemnukwShV9PTbYqvrC2d2KYrQPdFIMr1+BeOe1L+ItH8BUErwLccXkKi9/8xOAFtaRf5q1KhIfRBv2aJj7Q1h7V9w28NKDBkhNPA6WoY1PszAObI4gCS1B9q1nYU1MOE7EweCau4de/AksdbN/EtS2WbFDAbvwAIYpJ0d1ER7Zms3q4m4x2NKcsOxDT1gEZoVkxMn1NUajIfysroSXms75abQqPdD+257lt5sXrMkJvLVkN/3RFJHQZJCIocVQyr3/CsaJcZ+NxFIqZ6R/+bVY9mhNU+3sheHzs2TJq0IPOLx+qtILwLJmdlkUxrJr2CgskAnSIhNm8gJtpHALyRkhOUkj4qXGH1k1+YTiUHf34msxtufnePPEWO1ovI3lO7dYjXTPL/Nwc5EhKHR/UBzYESSq42P2MyRo+39/JS6E1JS58bYDqQTRVGIBlASsOnx6WjlayOmnePb6A36WVgEM4XcyjTzoJoAvIZ0VSnS8tomCJf25yzHVt+reQl9H+Pwcb54MY+4jvuuYAoVzWhWXdKQIArxjARRv3kd26in2fjj08s9hrDpqvoFRLzgbgPtSh8dj4PQYZ2hHx/TD1x4eSCHpsDgWLoVS9RZnVwj2zcVmY+m26mmz8K1V35qHyng8bbdawhukcsTvz+JhpXho3fJKONayryx2By0N/eUBfAhL7Xd2UNWgiJgMlZQ7NsXCuVl+ZvkU/X5L8yK3rcW0WXTtSd2XjcXslIKDMi2YWtyK9z4eBRp663k8SIR4gLCl0eY7NyO8OXnRMOMINbF8+e4PYIo1T6ICHiDHVt+Cd+YgFo/vdSyGlIEHXfyHdx2PExRTPKPFma2RsIOeX3n/66Gm/Vy4e52Py81TkI4HWBiYvEHV5ONxGn7jD/R1eMaO1jXDXujvMJhaTFuxnC8AdhT6PkIHX+V5WkspyL79HOzJz8xA6/nJYGzqOD278tNBeiBS76wA8EkSLA7qL2kNlU+RvPYKhTKupaqNAdrE2GloM1vW8d5AdrjgFMRqmmAvctlptEDohgeVEqyV6d0Ge7RmtFQyqAKV8PETvXjb/rBgde3grDagQNo+RIvHR6cMCEIrRXa/jMPBnDnDKf7JU48EbjFIy3kdBnA58fm5FEu3YCa/8319dENmcGN+eFOBvTjQGeGX4HLmXSckRRz11RQG8HiIFW6mvxgYKMBHyM2wB1h5CiOxmFh0Oyr0E4EhvKBKJHKg1eAlPkZjaCWyAPIATuR0s+vZaWMMc6aXCYjEtHXH/fsbnP3EMWb+yk/Y8CCSHHt7zyftSLjt5t5Ps2OrQ6b0lJMhkBmag5XP9KnPtLlURAjjP0sT7xHyJchgrIiOsKMKAe0qwmHFnEP//58shi2Nha6MAQunKJrCuKHw4lI7FC04uMKYNyum2ecMXuhaH13bKM5V86oZmTmV792WaBq3+brJxT5+a2E0mNn9++vjTXvhcTK/4y04kx/waHzcDzvwOPHhAuxSRrbn5yBZs9tN22D/+PrRNBoPnvibxjd/e0Oxb5tWTnjbsezaoTWkizJkShSPg1LhJpGWp/ukpVlOC+GKoSFJ4CVyxyKw7B5f6OENNtE0Hq2yFQSfHDID6EVTdRBPHh2qJAGOluolKolvuSKlHJ4lLZDspUiscTzsxf6P0ZIes95TlnJDM4UykNpw6PTD7D5L2zSwxMun0uL9OcF5nc0IMIa5js2wJ8cdZEMBJFdPwkEqLS+40Sh+4zGLmGBI1BKWHeQ7rSHlFh97MM7YIz4uIjpH2HH4IZk9P4syAq83AtDavwCwksBBxSMHb+hi00VgdjPIKi5bB4yDwY0rcKre9wT09XKxi8P8ciNI4VcinvFXBqArWnc3wdIlmTC+5QUmjI5+cu+TYM+8yccpf5CqLMcn40NYdK+/LIkWfbQ0NXRTgVgbmLh50LHEKxT7oKB173KlwY3Plgr5miknxhr2oK8UwD/fpQ9P6THmwxkejgGbH137WA9rbNQemCh0va9pFg7G6Oi9k+OPwYfWzDurZQnXDdWyCjo2nMjNEIYx/SOenzGF77RYKi/CLwLAzugtZVpMQIojZV1KQXGob+jNVXinaZh5BddNBzC21eNjJpMfLx5uFj2pCy1BvGVvDPJ615V0OAR1M67m152lYs0hF+r2GuqhBjtg9/yY1aus3yDloLppydP5+0WwITWp0mp9AL25WQKYBwKwzqX/gen0ERfGG7XIEpHfuRnGRCsyMU3lS0tcTqg9XVnChZ3vgVN380hs9MTqA88BEo+N9af/ePS3XkqMPwbxnCpRsJHWMH0WS1tPMyP0A8ibVpiMHDm03SIKu6qhzBMyghs6G2eC4XdeGXhtKRa58fTrMbSNmt26AXOJVqywArM45WKXKRGkGEm0TQU4u+VV8uPZIBLUz7oZX9kPbXiy67F5WPlE235NFy8ddd6j+EaeV1pZkQrnEpf+cIXt7uMFIy/9KuMiUwq6rBBbDBiVZw4cqWEwdC+PBKbjyRuL2aH0YWc3nHoVS1aKZD9+szDYnRi9Z6xxHBx1LYiMA/IDxlhFPH+MSu55ON6EM1vaDVE/66aqqbPx+NXz5JXDf1uy/ceH9q24Gffwqv2/gN+fa09cEPDHGtFIp+kx5dZizm4TlM9AePHfeHCA2BioryEay9CZbFms5RzMwrMQHOOEJ/iPN21/jN8zNs2+tu6zF9BaimTe5Xc3NfudYi4hXpPkMUv1lJl4BsxuaY/khmGpOfLiuuPnY65v2Q149iAon+3/4w+3Lzxk6LUnsMPrZizADofdHayaJRCKVCk9v8Ew4jVMI3PmTnYJKh8YpZLTtAvHASZYIlCzZjbDTRgE/WsXdS5fCEDL+QvTR30JpoHXnsGwZtqpdLPqVPDQlwRB1X6zMD24fhFo647+WsPcO4WP4Cvu6sO/BKPBit1bux//8s77T819tCFWz18FcJCAh9NDndRPC+Vp81OeNpS7aZmPSIVz/lw3dnUl+NkIfhwl3hfFdi9RCty5+OauFT8JYgnk3Pb1/8m8u7aUy1TvfRz1eR3kxCEFkBVv/kzN/p/nfn7vlZbLnuZXn0G0b/U9w2+/gK/EGs/6afM3Vyb2OMxygF/uvTU77zmm58n5xcGd+W1/97SmAHLCz8+oAaugF+XhFay/qFVZueBw0r7ncuvQupOCnUl3bkg0tBWH+zuWLux+7r5IIYcqCIkWDsqYESPp6V9sveCuIJEqDPVG8tlYurln1f2di/BjQilIJMb/aDvS23xVK0LAreUrj9QccHphsCuIxvG9ZzHT3/n4ZcMbnwZP1YFnNsy5JTZqLAINrX20lzu8w2IxYCyOHyy42xSalrJ+pwdGvKgzynPs6wfWMaqwYUc5E6f/2IAQTV/77xNNe1SNm1Y75fj09LNynR9kP95kIEWyUtIxu3XjwIZliZbPpHbbJ5ri3SW158GF/h281DIDDSddgX+b1fv8fandp9UcNLf+c98EIJqoDuKpoddX7PzVRdnNf7bq5be9PvDyw7hXJ8cdmhx3SM30L+O+ldva7gSViszx0/VrqTTrIHZad2ErfeTHDFUuWbRoWkBb3nANa6Yc23berand+W3bwOurt//m2tzHb5KDvlpwVFxUMNZMndE0+3tV4/EDnzu0KUynN0F+qZR558Wepbdk3lkT+roONWDbT2y66NHEbvvBp2fJ1QNr7tM/wOOe8vqVoW1GEku/9EiVrWkpWHfhGHOwJInUiloJwySRTEhBQDTW8Lkvt5x+Tay2AR8qu1f/smPxraWhXpezSNh4r1jj2LoDTquZenK8ZUJ8VBufn/ixua/Quy234x+DG5cPb1xW6P1I+HKxqEEksXRr/awbag6dBz34RzOdvzqXi6xdyhZRQs0KbXERPkzKmNEG6+aNUYnQqCSSKIurkNdt6jFSAPHG6hpb5l7bcNy/IP9Cf2fH4tt6XvglNq0rE9jBxhsFTwyGsyxBVZpvvjk+PGrKAbwSwCxVrGyi7ujL6k/+Hq5tXPb9f/pZ3x/uiOT4KyToSGgXG4kr9Is3nDU9xELDX+eNqRi7MKZPXj5tydVuZKCKMJHUHlNaz72ldl98jRrJbP379t8sGNr0J5cGZSlPxPLieK4c2lhyuffcFMVVTTkZ/7Yi0cLveodeX96z5Jp8x9su+ggGOPlP8C6cX5WQLeRfN6/NX3gjcmPAiK0Vwslfykw3ojov4YBNHzKn5ewfJJv3BLqvffGOJ27Id+I7PYx4hF6slA0pchdacsmjlGid1HjGbdVTTgY4t/2t7qeuzbz1nF2KZQbxgNnuwI5NC04ShgzTrkjtrxe0kUKRnD7FNLSz+PLwxu62kLmMJE2kmk751ujT5keTNcXccNeKe7qW3V3K89dwEyA2JIxgSlu0SpHrAxOei4Kq+oaZ300f9zW8k+NHqZ4Vd/T/6T8jxbzmmQVeYeYiNHrmVrn1Rup3XtAftJ+vLc0vIC1oRTHI5xfExIVDzPBwlRI7w0FKvGG31rNvrJ9+FqZzXVs7Ft3Y/+oi9EVGPPPlWC07LnQQC+qmz2uccz2+9MXv6f2vPNr9zE34hxKWhuUDfosVto7Z+CVPvMyCEWWxjuNpP78NY9bM+UgKoUQ7kA1H+CsBQEwuWx3CwKt64uGt595atddBsA69/fL2316b3bKekz7bCimkSk2YPvrs21P4kgi/YLzz585F38ttXW8lkVx1tS/IoGBic+uxy83FAlXoh4FI+iJhdghhepa5m3NGjVgU4P2Scsp5ObCGdCeX2iAy6qgLms+4Ll7PFet96bHOp27O9+NzEjxMKJHYEaPPuLHuMD735ru2di65cbD9d+T0VMoVhAjHz8Zy52OebtSatBLoXSoEMDcFYmO+IMSr/Xx8BHd14pSp4ckWDRkqhYpUOUc1FFXRaruS3P4cIFZd1zT7qsYZl+KaxMfMzmfu7FmJfwGEaxIfrVKjTvxG48wro6laXPM9f7ynZ8VC/KsfyHKF+/TtI37qctEZ0t//TI9ElDcdjf79Inj1PCZcdvbJcz1DRp+ez1DrLBpY5E5KGpwRfW8RItk2qfWcm2qn8a6LT6MdT1wXSaRazrwp0bwXLP3rlnT+73X80dwuDbgaE88WS2fpQS3cLIbsEYOGEW3PU4nbqlRBjNPD7tpzcQ3DrHq4CV+5MJgo5OqDaYr+YnS8hMFEYGgJ+9BQO+2klnNuSY6ZRIQOvG/vfGLB0FurTYNPj3o0L6F+nWEhN/8qEkBqDObWk1u9MroVxSxElZDwbujAJdyl3qGSlDEAUhoqOWnLXqQKRWgdOFsJIL+kRmONJ17aNOsqPDx0Po1PZg/zcUeKMQ0Xo1WvXFwAKuQ5YXBy9opAIqAwlsBoNSte2oO1X7QtbdEAMjQdyEcgjRpXzjpSquS0E4culVEvLApJX8dgFmDwj3H52JQfNma1uMjoZn1H6y88hheJy5CczmI9evlALrowxqZWwoJIHA6OhfLsiwWSoE8I/jN2nPW/B+k2CJPpA4apUqu67iZJVzFozmgBwI+pANCWGSS/Z0EHhyycV2jxGymZ+TQLMewIzLKKARzomN06FEwS4mAXnCbDY8sDDSPobNqG6AsJb07QGxb5OzzszpE1cV6qLqnk5UhCmIUXMfB2tihoyWA2NwEExkxG/PyOBlkoD7YmCVhRuXIbj/OiBo9EDyNQseQMYyNHZ0O2miMjfeXMLsc4aMLhXNmlOHr5n2k4i6EDsU8Stur4MuHBybN5BudFsGOQj6LqO2AGwix/lKGvOB2xDTkQGzUIo+zwNa1Viy2p+ZWX+iLh0pXFGaHDW7G9UKLJyrsLI4kNXXT8oU1mkW2WcK8JoDIVzW4xhVdEZS5HYEN+1zcLNWAjKChiw9fzk1DLwP9/2KzUySCmWKphwCzsZHBy1GMDKx1tiiUiCiVzPExGu9F5c54W+QODF31c/jDTQSALqSHRmrI5+dKJgdD6vSKVFpcBHKfieX7+hCUq98sDJ/FCFLxIaWg3MrsBbB59IgingZGZOrphRwgf2/Ckkz8JcWgoWosIQuxtKsEhu8dX0qpogkgwg+JgyVluRnSFgDxNqu5Gi1m+T2sbULt8hBJWsoxFnKRGBWmhF1qEUdIamh2tsgq1OjzthLk/l4+NfGiXrEPyZPzOkQbRCmCEFTzCG0ZhwoxMr1TxM7jp8FufMfhy0+hw6SqOMKrBDI+LxURXACnILbuvkRWIGOj2NzYthNsdWijNU1UYVxDptHCOwdVnF7zpVzm0Hl6/Y/M/tdCLSUK3Dg4BgcV+FmOeHuClkBRglsymmZh10dGVRi7MikxFMaysbrNY4iKgl203BoOf7sAMQAYcYUR2dLlKgC+NopNb/ACwUl4/uvSq+H3Ykyof1gPTOlxtwqg2ZaRkwRjBSUdS8zE7xu5FEA6bRdHZEb+3aNoBWJpwFqqBKe/tyl0gmF//XULYpqPRhxBAb0vouTuq44V0U8PWx2ZXPmjDfUIDAO6N1HIuw1yNvBeTUvnB4Kkw5yoloxv6a4EwmEbo0VBeZDNOP6zQzzkWjhF5wTqSfwIxqjY59ctQigAAAABJRU5ErkJggg==;fontColor=#FFFFFF;" vertex="1" parent="cVnY-JXB5LHUISSboKDK-10">
          <mxGeometry x="780" y="200" width="80" height="80" as="geometry" />
        </mxCell>
        <mxCell id="j30cdUnKlF8bIS7Feb2P-22" value="" style="endArrow=classic;html=1;rounded=0;edgeStyle=orthogonalEdgeStyle;exitX=0.5;exitY=1;exitDx=0;exitDy=0;entryX=0;entryY=0.5;entryDx=0;entryDy=0;strokeColor=#FFFFFF;" edge="1" parent="cVnY-JXB5LHUISSboKDK-10" source="j30cdUnKlF8bIS7Feb2P-6" target="j30cdUnKlF8bIS7Feb2P-18">
          <mxGeometry width="50" height="50" relative="1" as="geometry">
            <mxPoint x="630" y="300" as="sourcePoint" />
            <mxPoint x="680" y="250" as="targetPoint" />
          </mxGeometry>
        </mxCell>
        <mxCell id="j30cdUnKlF8bIS7Feb2P-23" value="" style="endArrow=classic;html=1;rounded=0;edgeStyle=orthogonalEdgeStyle;exitX=1;exitY=0.5;exitDx=0;exitDy=0;entryX=0.5;entryY=0;entryDx=0;entryDy=0;strokeColor=#FFFFFF;" edge="1" parent="cVnY-JXB5LHUISSboKDK-10" source="j30cdUnKlF8bIS7Feb2P-7" target="j30cdUnKlF8bIS7Feb2P-8">
          <mxGeometry width="50" height="50" relative="1" as="geometry">
            <mxPoint x="890" y="90" as="sourcePoint" />
            <mxPoint x="940" y="40" as="targetPoint" />
          </mxGeometry>
        </mxCell>
        <mxCell id="j30cdUnKlF8bIS7Feb2P-24" value="" style="endArrow=classic;html=1;rounded=0;edgeStyle=orthogonalEdgeStyle;exitX=1;exitY=0.5;exitDx=0;exitDy=0;entryX=0.5;entryY=1;entryDx=0;entryDy=0;strokeColor=#FFFFFF;" edge="1" parent="cVnY-JXB5LHUISSboKDK-10" source="j30cdUnKlF8bIS7Feb2P-18" target="j30cdUnKlF8bIS7Feb2P-8">
          <mxGeometry width="50" height="50" relative="1" as="geometry">
            <mxPoint x="920" y="310" as="sourcePoint" />
            <mxPoint x="970" y="260" as="targetPoint" />
          </mxGeometry>
        </mxCell>
        <mxCell id="j30cdUnKlF8bIS7Feb2P-8" value="S3 /bronze" style="shape=image;verticalLabelPosition=bottom;labelBackgroundColor=none;verticalAlign=top;aspect=fixed;imageAspect=0;image=data:image/png,iVBORw0KGgoAAAANSUhEUgAAAFAAAABQCAYAAACOEfKtAAAAAXNSR0IArs4c6QAAAERlWElmTU0AKgAAAAgAAYdpAAQAAAABAAAAGgAAAAAAA6ABAAMAAAABAAEAAKACAAQAAAABAAAAUKADAAQAAAABAAAAUAAAAAAx4ExPAAAfjklEQVR4AeVcefRdVXXeCQnzPCUBQiCMQSDMkwwNguBQVKpiQSwogwUrtjiUoassqkvMUlFQZInVWiYBFUVUkCqIIIMiQ0BIGGTKBGEIIUCA5Ndv2Pvc+35AhS7/6Fo9+b17ztl7f3t/e59z77vvvgcj9pm62VCMiIihiBHscWDv4QiKNUYHuXW2tRFlbnBDvQ0bPpXqGh4zx7CPsil8+Wyuc0Df1lUs4ykXz4xfuFfzQ1s2xdIkOWcBiJWketkK4tjEZK3oY9QQZxQ4ZVkODYmOLXWEFsaWO3jhBMChyBIJwxKrFykeEIgq+9Is41LWQSoOpMLw2PzDQeFjBJxVqJ6DLnxTGg8FJcZrJP8KU0yGuGkS5/BEAMO0IMef8JAymZEOZtDQ0JIYWmLHPPJFsEcp7xQSV7Lsia25oHlQXDsrak1Ne0agguMl9NO0HHDhrBsQY6KYMlZ2DT9gh8xtR0NFamrKFVgSc1+CGrSWEDKSaVNgAB1lIyWTlkVEE5fUqpM0Sdi5kqS4+NhErrqEHcAkOUZxuDj4Y98nRIJq5QdKDrvE7auK28lNQNYDO5CS9MGYLCL+DeAVsBbH4XnkmejYoioOlMtfkq6cmP8oZlK8a5v6dKFzB6eBZXTlZic+8ZsHO7AtF6J5JrHBViR8OlFXsdzTHiPh1JcDTAb8Mg4NZOtCsWAqBBStJ7dsMk9Q5azSyZei0YXybygI+nEr6Eg5s7UZIyST078kxk4yyjGp4pGP8R0zBrStexEQzuHtl9cxY+wr/cCbE7bj0jFoXR6Eh7oWlHyYvGISz0RNkjA3ctbu54C8VC7pBvCQw5UN1NHQhePlTcnSpjnOU1gBM3CRtoy2QPQAgGdDKikvNZPjaaKmfkQ7bcRMwTv1gCnEnHc+7adOO6PymHaDtlnEdEo0a9HwmFBmr47T8CnlXHDaYqDFbJcbFrLzoTEOI72y6RAGrUEpZ7REa8H4RpOyklfgAbmVLWKHZ5m7ZqwXQ+NUyapnKDzm2kk9DwN+qU9M35epWNF2YsUhAC91kAmXfshBPFJuP/2dyAKmo+rkgNs9m1zk1GSxPPjTGwFsinCzZ3CdLpYQ2kj0Em87tYDaL3BM+55TJwQvOpXK2Du7ZknPW47RXg0P/8PlhVfvtDQctOtytHyQ4yiml3/2A6IiCxI2hRiDxolCFEjXoJ6wgkqe143APVW1KiJ905lOjyyoRVUGaCoe7/Oy9f2z+M0Gel+lbOhr42CxqOnwPq1tJwUOGRBd46/cIMhGfM3EigTAX/eBFMieVDBRMBhU0uw1FqafFF10L8YitsgWpmxYtAYoW4J6TZFMRlxUnnSgonfhW5wO3uOfuVAnPvDplDsHvhx0aIXp8288EqOaOIXyi/vAbrVa4umE+HJagL5NhS4ifZ2wAmcCMNYFfTiplJd/BjSWYDRM6Ld4KEba2MB+bZp2sDYX+5A/upK7kqFnRQdk3ZyYaoqPufseHg58CsOSyraty3PJy1Puym3X3yUO2/242HjtLWLpUcuU9i/Sv/jyonhg3j3xvd+dFXc8ehNL0ePlIujI/MmHmXJjq88dToFklReplW6QZrvKJN7l6Wzkt5t6VEYMs/tnJw6NBBG2roAc25ayvny7CbvG1Pd/Z0Bmy7/skcRP+cnRMW3mTQOxios5OxPJmAyLxKZxDofxr7wqZ5mPNE5+ckEqDnv75UJ2MUYkBp9EsErEi8vgaosJ9dwFYjUUh+/xCSV03m/PigtuOjteWvyiE0RgBRMXWA/08KQ5ew+s5hEXYsgYnjGWHrV0vHf7I+OgHY+Og3c6Nk64FLswfTPZaj5ZPZMXOUieEhcHRHhVfIdl8PKnPKmCTFxTR9qsLcuglhN9Fq5tSplfcKcx3RJFOQWB03aS5uff8I3g6UaZdCwCbGitnmPdM1KSNmXLecnQ110T0VyQS245B9KIDdfcHD40lE+OFCv7/tg6Hrv4r7zmklPHRzzTnpWxTiTBxLZ9+/LtXsB6mNAjptSqzJTnSy6jXfOYaLccsMkqiF/CuYKkK6L0w8ho/fvE8tEnat9drMYhHZRt7ZaKId8wLnllIT3jCl+FYuSyMEcXkV7QMlZ/UqKKT/ioSri5ghWrr9b2LVxrh1nMoywIJlAdB/biAKmQGlRzh2LqMUFyQoll7CVyppyq+KSh0wlahUwu5FlFoE21lmCSo8r48sciUtjj0HPQhS+C5k+QYIqvET+J2IhHBq7gkuJQgR2xKNJYgBRzpxH7/+954sgqBEujoqnHSMswWNAqrm1VXQ7T1qcrF112xMsNDjJxgTn2tQmD2jU2oQotd4cn9oUxff5ffJ6IR/omV9ucRHVa5GniPCDrbXHKqpjEVf40EV62LAQ0EvZ2sh0m3icgd6+aHQzEar4TV12LDwzDiEXiGbN4tZ4DNti2eJgWhCqipBPe/CVjTWiYzeHMTA9UpeyRcOKwhoz3O1SpMOVBvR1SZ7xGYjSAhxk1mSWtOQEmH4ZTUtxg6ISEgMbWxEoiQ4zwNzLvw8QLcup5dMLGEVXcVGTGyVh1H0g5bYpzjc2SOmAYUkXEWFEQXwr0FNWK0Jkd0SE1mOeTlYxroTW2pY1ZqNe4yVJXznpoaHp4K8iDp3e/6XSXAAyoKl7oy7TfD8SHeYfveRW2H59OXcSGl6SHHwzfch1Z1yMC+a+R1LwLWo5LQtJ6ocAeC11q+aG8S5gTYl7f80QZC0AQcYUfjCPe0LU+gbIyRBLh6Ue3W51iwC/1qZK/9MWu2WlDdXh8Fs6mLcaTwMZ5hjSgt3YZ20YyiGp3/uozMzqDNzh6+1feJISL3hH0KE9NsKtYXPg6jRyqNMXN0kp8kKufJxaeMTJ9jLgYmOcpOoCHwlfXisHvhYurUAYS62kpDTCl4UfY+G+44g3N+0R94Ul4Umj7Lsm1Cz7MLCqu0CR/3eeVm0yUhWHxmw3xLFrauXA+nVOkruPn07oK3HYgHXAVmiHdQtgCQVmgciwinAgYMeW0TaUixra5YtSjUZbDzlezTTeZqBEEaX00HdmfUJ4EyyeN6tRlLKuzp6uUFQnizVPuaSEMvZQtc5Fd4VupIcfp3PssTLDXgR3HnOklgWUViiIT7+NonVjiMW34nrxs2LP5utT5Lx5WdnJfr7sY0uNAOZtwjKmXZZy0XHJMUgkRro8nipmbg33In+QZo2KhAPlJpADy1zu8ltyO0r3sB5KuJa5AZoUZik1ZvtB5wk4X9/5ekrYVx7MOyyS1hOmsilB2tZuGy23e5VW8qzc582DhdPMuITxnrH4/isRHjPQ9GYMrEeK1d91J3l8yCmDDoPRZF+NXs9MpwlPHSrsFjnIm51Am/Gp4ytgqQZ9arx/PNApPDnVqknPzyYWFnT8aw4oYEbY9BUyf2dIfcYVvp7CKQatqNSSw5CWjDcf5UodDsysfZFJyGgmQSs2bC2E7PDPoWoXvJBil0EvoHTXcrl+8ASzh+tcxIta+ypJvRubR8SqdcUxBbyIEu7KQEENN70lF2y3FiCbJtu0IAH994n3Q/O/aW780yT4bEfthnH4MJsmvEVZYZqVYcZmV8Vopll16hXjhpYWx4IX5sXDR/Hh20YJcEOZV78o9P5AN588CdHVgAbIM6Ft87gfVqsOjgF2VO8Nyhl7VlL906bFqzGTZMBm0s/iNHHUpaQQ75MZj3hQbrbU5XpNiIzzM3XDNTWM5FOx/avyF1UIU8ennnoiHnrw3Hpw3PWbMnRb3zLktFg+9pOKRet0TqFz9hcq8MruuAr3iaWHgAfeBgnMBWitZE8CFi9tJuqKJiZZhz89t3Azkj4ckRjwbjxp72uI6GQu3W3832fJw5sGXtHENnlv0bMxbODcWvfR8LHr5BT0ZH42vApYZtSxey8XqK6wVKy27il7jV58Yu2+8n6C0nzbz5rh6+mVx84PX4Bq8uBXx1fMnH+SOY/HvzggKh1zAKg53Ud+YUeVYOyzHFGZT7eGEydcqUiV/7HPFZE5jOJNd6rxveYp5p++0wR5x1JR/jglrbCQID488+ae47eEb4v7H7o77HvtjzJ7/iE5XEaUzEK7kyL3my6KQY1dZDzt2M+3eLdfdUV8R7LDBXsHXUwsfj/NuOiOumfETvwnCF/OXS/CRL/rDyHvMm0iiPKiY2524HjX8Uyso53wRXE8+aHDjKQ/KbrdTN4Rrg4RNB5IQC6uWWOoItMxkmh7yY95yUhy4/YdoErOffjR+Pu2SuOaey2PuM7MaN+oaBj7LrXhkzBJ28bvEV1lu9dh9k/1j30kHxga4FLDd/Ker44tXfRJ5+rePJE4s/ajXMEfUDZPreWCWGADvBBOryruIRZa+2WpVGEgrARmde6xI5ZbW0hHHsY52IJL7b/1eFe/5FxfG2dd8Ia6Y9gNgmRBsGVhdJiE0RMI7yXb9lW3GEsyxCCF6/vNPxs+mXajXLhPfEkfveVLstOGUOGiHY+LCm8/MWI5Je6JbzwEbhC0epngijYCUS4EBJhpzLpLuh/+qFJZuwhOEKe2ziDodNLeK93z0RxFfpmbd7pu+Vb7OvOrU+OntF8fiJS+LpO1sY2zh6cAZ9VzJ0Ll0drJSXMiA4pG+bvrTL2Pqlccr7s4b7i0dtdpENpSdDIjH/bI4yAPTdHy9C5OoF0907KQ584oaYD2dEqOALFjaXvcvD1D4utqU0zaRD/rV16NAfWCXo/Cu+UBMn3OHyHY7Gsok3DlnQk6k8SeTlOXAN+vAaq929GPcyhPi0F2Ok7uXl7ykvnKqTcA10s2+8F1khFHOlIyyAUbt23WgWFwa6Q2CZuXI4zqSD1elTqSSv57eZOVA1zxi1sebx9cPvSSmPfr7uPrun8aND/w6Hsc1kHwUB4n41EZEckSj3M2CJodwRNPBDv9WXX6N2G7Cm/GuvL/6kflUfO78Rzs/WSxtCn08sffK0zwoczzdSNuEMu6mjixNzMG7UMo07hylAMa7nToxJ/x4hyGzgQPuJO9gixzccsab9fTDws1++pEYNXJ0bLXeDnp9HNLHF8yJe2bdjp15f8zEO/JjC2bH088/EU8vfDIWLX4hXl78ksLQwVIjR+lWZpXlVovVVlgz1lppTKy76gaxHm5lNh2zVayz6vqKwwNvup9+bl6MX32jmPPMo5CQsFs/N47ZdDaw90w7kx/n8j6wTkMb0shAjQDiytdKy0M7NDEHMHexXHgvh007fPpkpzYUs5+qAj4an7748Nh5o71iny0OUBHXWmlsrLXZ2NijzIf19MtTkIWvRRpm0qbPPP903D371vjNfVfEDff9Vxy11wkq4FwUsM8v1x3JdDmXnjHqrGXKgzsQoWyYpwgsVPn0M5wg31hKRhOVhl41ZtFZUBeziiultnL3MGFm7sB1VlsfbyBLkNzVceP918B0KMasvG5sse42SHQi7uvWxXydWBuv5fFpRDfOo5eL0UstLd4v5I01383nPTs3HsPp//iCWdjhD+FTyB24h3zI4XEk77Err6f5HJzC1Xjq8q/ybn1ilF4uPmulAnJgwzqt7ETZ03PplbhDqdA9RwN4wJNFGaN+3uVUsagmSfUIXANnonCLccqN1Wm4OC/q1PI+cO4zM8XP1k5OYzrC36gRo2NxvNx4Nh0GemqCYOQnOQ7FlTfabLPm+wxQHcST0sQgd6VDPMZszkWh/QtVClUQDTjhgAD88e2bU7Y2wJDO9EchbNK57NrhNeTEFTFgedvCa91SI5fSDjM1O6k4ju2LgiNmEEx4CusxHDkPazzd+q2w/Fp1zRXH4XRcojeq4XbkQOhwufFdXviJLycZAr0Ts4HIQ0VatitD2jvAcOLd/RIxtHNr+IxBp5QVwVl5HVxn1fEtVsXnlqWrmldP7GFvPi6+f+yN8f4dj1Ag6vqvDN9knFO/9krraMGewKn+MhawWh/LcTWOiyvF9b4wsm8gkiVgr03YVbuvghRTB+gHbTZWyaQRKRmNCo6ew5mtgN07ZRJw4YTVwSFy+O7tDtVDg8N2/0Qcu/fJumYKJyvvyF4djMVx3CrjNZ6t07eK3tQa5Fnv+IMqcHYFVMBKsOuRFKL6RaQv+D36WRh7LYLsaeO+8EZx9azjkbvXenrguHbgONxqVFz1QtmGQ+94z6m/9A/nBt80eE/319scHN/+8JVx4ju+HJuPnQw//A7a8dUTn/Mx+QbChxO4SqmZIWySU//TV+H6Pce9HZhOKqCmuYKZRHVUZUyMapUt6QLQKk89DtVsw+uORm2JeztwNe4M+ySEdPQCojBVRNp95zdfiQPO2D6O+PY74so7fwjbJbHnZvvH6X97IV7fi7/a/J24xdEvWBpn4msHrrfaRD3+6nibI2PXG0/jkKqy5Wmc18AOpKSBoFH3ojsWrWdHPf+lnS18LJl7FsA4dtyJDExXTQ9Y7cB12w50tPJlXsBou3TXxOLwMD4CfumKk+KD57wlLrzx7OA936Rxk+Mzb5sa5x55TXx49+NjnVW8uxl+TL4Dv2md7eIbh1wWu260j8iTacWsnmS91s6XhpWLCmiBL5IEkaxfPtoRrQYbTW3fOax5WSqw7EpCOm7C56zuBcdpB6YNDGsXiDFgxAqvAROiLxaU4yXxxILH4jvXfzUO+eaU+OpV/6pniPxk8r4dPxLfOvzncfoHLooDJh8S6+MTCBs/dy+/zIpxwttOj90m7tvykTIPztMThespfR8IgXcF1NwcRLCG+CxIgItAil2TCW3Qmo1mwBAuHRYFT6X8PNHJ1j0Y/a+90rh4386H4ZPHHro5Jpw3yO/Z4YNx+a0X+fZEvsyDjo2HUwQYKC7mZMi45M+nzz+742K9Nh+3dbxj64Ni9033i83GbqWXqOLw4Lx7dUPO54OH7HJsXH//VeJfemZXnJ1XfRJhfNCYdPwY1YUFpICNgBp3cyqH4rbPz6Qotj1hPdukITv6YNO456Dvr5I+YNuD4uP7nYwvh1YUZviBp/RJ3z8GT6LvGfDXcwt5RXTQ0lluvgRzRBk/sey60RR8THx37DRxr+Eh4/ZHboqTLv2I/ToV2fTjcFyNQ/02pu7WXQLuINbUhgRwzlcfTDUkeuJhG0PoVHBFeeXqEbXfVu+KEw44TRa/mHZZ/PD358Z9c+7GqbR8TJ6wU3zozcfEJmO3iLP+7uI46j8OjIfm3ef4QnS8OBXTFhS65Cv6UEolwyE9Nrt2xpV6IMECznzqobjstvNx6zNOX0Bdcef3DWv55w+YmD990BlH+Kun9O2jXAucdlUw90Lz0JqLVAVKolk5rrlOJ/aQscAu/pA+rp30rqnyM/Xyk+NHt5wPMP9GxPMvPRe/+uPP4tp7fhEnHjAVhX53nPqeM+LLV5wSW+Lz8Hy8MbAAz77wDPBcVMbtYjAWm4qWcRW/hNKGvivh8IHH746f3I74aKqNRvaZzv2mR/4kafeyylD1NAagBNdAtkmCKpNrVmWdAWhAHVHoc/hqzxMP3vUofa/rnXee/IgcsYTCDz8Xf/6yz8TEtTeLTcZMijMPvUB2PBw95VNx/IWH6c1BQmai7MW46ItKspHfWki+0Yxd2TfRs/D4rIouIzisQgpbVYJcGwJK2augil73gczYjYb1kYVOCWgcVaC06zkvLKMzcN00U04zkdckYs9J+3IU/3nd2erbQRQ6PD/f/vuvvyL1IvwHPZf+/jw8F5wWqyy/WnxsnxPlk0rG6zfxrTtjKJhPUVXyyIlPfdh4E106CXAQX+LTMTv6YKue46qRnweCPIHMQZu1VZqmbi5CV2hKTYgjJs4rIka5OkWWYemT82VGL4uHmuPxteQLcd/cuwlU3DaAA5/ull83/ar43I8/GffO/SPeTKbrTeCSf7g2tpmwc2w9fkc9uab//JMbXSqSf2OLQSsUxu0xFnagwMmPDhpeTpsHzFxEbhI6U06QtU8iii53MFW0XlTOE1927LsCdlLKaK7QGLh4EVuN3z6+e/TlIshrGO38yydjy73xntHPz+/4IYo9XeFfwq68fsYvBTjjgxfEZ//mG7HuahtIR1tGZS9eLGKSZq8xScGgnkzzSThh9aKHgfjUsAxpw1zaJG2HfRam1LtFjjAlQIQSQBGbZSrTK/SiC6IVeIt1J8dZh10QG43ZFJ84HomvXXWaMYY3X10c+y+85Mnju9d/Pa5AUZ978Vnc1+0T3zz8Ujy53r7HKbGMT0zjajmfXK+x4tr6KoCP0Njqo2EXP7FJoOS6NNEpMdnrv1jvF0laHJQbCZAIAalYhNOPbfRS/u+E009z2Bl7tUju0+88FT8AWi5+fMtFceDpe8VPb+X3vnTOP3svQhkmOyZSkS2aO39WfO6yT8V7z9gjfnnX5fqR0b8d+PVYdvTyPWiuDCQVR2GQFT/C8TTlg1r9X4rSfX1E7DnRsK51JTfb4l2fhVNLpT7oY8DARb62Luf3zLpL1kfu/fH2KL3lWDiWJfFrrzw2thy/bSx4fn584bKT9ezNfvN0y8+2jSDmwkLQ/GqcfDLGsy8uiFN+dFzc/vDvYtUV1ogpm79NLipu9RLqdHZOvAaz+SlMl6OEOBSu+uFyzqnjFmNxdR/YCSHmRRJNJhlYmUBMzZlXfiHOOfKi+Og+/6iXjF/H4f7HZuiHQJ1/v+kQakJ2osWSEAcGZMHwTzjztiHHaLwmTl5/R3zztqH8lH9r4aDwdIYvicZVAXEpYUs3GHjk9BmYzT1VWRaLeUxh7xpYIDpVVF0btBJpzxC/nXFtHHnOQXH7Q7fg86ZPZ/r7c42/4yO+nRIMQQFav6eIc3Lo7wJdf6SjRXed5m0N25ML5xlHLBzIB3tFtYxD/kyObSa+aNLCpT0r1OVasV/7eSJZ0H5gB3L1KGS1adCqzoklErKIN9z7G60PMdOm4stvtK0/s4762gXs+fnzVyffhjeQzWLzcVvG9Nl3qojUeclqlb3LHJ88GAq94sotDmKlywx1Ky67ckyZ9HYpZ8zxpYX25ZkK+uEbx+QJO8a7tjs49sDPSHij/ocHfwttb9Pg0gGXGVcuM346oQh6Ini9ZHxO9FmYxCSgERqDUtYabZUMxQ7EHqNBOwG8CIXlzzZ+cPP5cdiefx9fO+zc+Kfzj4g7Hr5FftqHFxiTTzUWcbCZH8WMOhoPSLdYb5v42L4n4qZ4fNw187aYjpvsNVZcSz++5OOrCWtOxGtj/Aprk5g8fgc9sqJPfvV5+pX/Gvc/Pt0hMgUX3SQcv8uNeSr/5OVaiEyMmPixNYb6xVNhM5tO7gQ897gSZJi7vujbgS0/PY6h2mLIF/RL44eP38R1c5sJOxRsoB9esFfM+4sJJB/fd9wGXL3mhDfu1824Kn586wX4TP2Ull6bBCRbXkJjnv+Zlvm7kLbxmA9f5AA11ClMwn1CwxOgTsVPu7KvwI01Nw58C69YPAVDbx4f/dZBccTex8WULfbT6dwwhJBQrw2f91SvOmQ8Poh4btFC3B8u1MOGR596UE9x+CRn+pw79bUpwY0zYrY4TI454h+pKD9FGpSx4MTwegy0bEdseOwaQFtRztk35wrKumSS6Cpd2TSxHRZJEqnW+XPgTo5RGrKrGBr3HBhv1AAvimTX45+LPGBH3+mv51ayRhOK0imesnRhafNaePzAMv+bB/T8o6F2kPnmnCqShB7/tGDY5jAX5g09TxRjJ6xyZsL0Sc6MobHipx0ElDkJRc0x49umkSn+jENM8uzvKrqugihsC2oCyr/w5ENAI2VF/ffOA7cxNHTxXCTjBOfQnnJKO9v2McNlpSOYgbPBB/n0Y4lW36dod4vZLx69dHiMnWInUxEdS58wEKsXvZEY4J+FH5QlRwZ7RXOu7ddZuZ+4NI2Qn/EVkiycEDoQMqUK2AjmQCERuK20SBC/RLKy1/WEk/aWjInmFHGPupVd3UKQA2MwvrmQH/7khxgkCKPCyw5zX7+oTw150VkuQtlzSv+a41B48qdUEIz8P51ocBvWqkGcmubKIkpVkJq2sKQtkta44I1jR2kYPv2AFSMxSfZsxLpInEikw2B8iDLTwpcl7WxLLmkG48L3XDa/yj8dkAlxbOWHsfSlO2T+kTmZyYiVdXU1LaThOlJfROwXR62QyXHNbWO5QDgwuHU5lh97IJJEWQPFT3t7NK4SLt/s2RrFJCV841P+HVMARYFPw+mh/qSW3+TWTNKfDXCsG2nEfOXzQAiLrMLLyyCRpm/s5VoHrxjte1Fply4KS+P+WOCU0dxhq3i0pQUL3bXX8zyR1i18q5q9aKdjyFnzz7kIeFGFhwX/ufa0dqOZ30RQUbZKSAF9kHcOra9AXW954TH7M88TGaP5d5l6cdMP6dKO7vhKApQ0OWWqcul5ZiQeXbMrfMrq8tDB+7jCZxxiCp99F8O2/mkHlbw2snfXjh2R0rh3eiRqUDkuYG3cDl8a95mr8XTRBJzQhjsYf1hcR0x5Px710jphogbba8iJQzz7zWPFl4NcGYzFiyYy8xnQphC3n3YQJwUd65VgyPvF4KyStV0RMf7PPU9UnCTb8CJnApKBSeloz/j9OcfmAbnOnl7CLDj5C4NDtoaHQnhA2HNH9lvZVS8dr4kYCNfriW3XwAFA82hg2/ZNTme9STp1ACcjdS9wV2bjhsFFTiT7bplkFrMv5jhLJHFxrwQt1JGGLXGOW6tg1EPIfAbwMhQBy2nUd6C5dmACmXcK+4TKqXrou2IihayiexfOYWDIv2G7ge5rxYkZxCcP0iA29Q7h+7c+Xv4pSPvqKRIeBuWDusZbDn0WvTJ+P3ZyyKLIlry041MHX/8NkFtqyulRca0AAAAASUVORK5CYII=;fontColor=#FFFFFF;" vertex="1" parent="cVnY-JXB5LHUISSboKDK-10">
          <mxGeometry x="910" y="130" width="80" height="80" as="geometry" />
        </mxCell>
        <mxCell id="j30cdUnKlF8bIS7Feb2P-25" value="Text File" style="shape=image;verticalLabelPosition=bottom;labelBackgroundColor=none;verticalAlign=top;aspect=fixed;imageAspect=0;editableCssRules=.*;image=data:image/svg+xml,PHN2ZyB4bWxucz0iaHR0cDovL3d3dy53My5vcmcvMjAwMC9zdmciIHZpZXdCb3g9IjEuNjQ5OTk5MjYwOTAyNDA0OCAtNS4yNjE3MjUzMDAyNTY4MTRlLTEzIDE0LjcwMDAwMjY3MDI4ODA4NiAxOCIgaGVpZ2h0PSIxOCIgd2lkdGg9IjE0LjcwMDAwMjY3MDI4ODA4NiI+PGRlZnM+PGxpbmVhckdyYWRpZW50IGdyYWRpZW50VW5pdHM9InVzZXJTcGFjZU9uVXNlIiB4Mj0iOSIgeTE9IjE4IiB4MT0iOSIgaWQ9ImU1MzcxNTY1LWNjOWItNDcyOS05ZTU0LTliYWMxMzVhOTJiZCI+PHN0b3Agc3RvcC1jb2xvcj0iIzAwNzhkNCIgb2Zmc2V0PSIwIi8+PHN0b3Agc3RvcC1jb2xvcj0iIzVlYTBlZiIgb2Zmc2V0PSIwLjgxNyIvPjwvbGluZWFyR3JhZGllbnQ+PC9kZWZzPjx0aXRsZT5Nc1BvcnRhbEZ4LmJhc2UuaW1hZ2VzLTIyPC90aXRsZT48ZyBpZD0iYWJjM2UzZjktZDRkYi00MWFkLThiNjAtMzc4ZDFjMzM0OGY3Ij48Zz48Zz48cGF0aCBmaWxsPSIjZmZmIiBkPSJNMTAuMDIzLjEzNEgyLjM2MkEuNjA1LjYwNSwwLDAsMCwxLjc1Ny43NFYxNy4yNmEuNjA1LjYwNSwwLDAsMCwuNjA1LjYwNkgxNS42MzhhLjYwNS42MDUsMCwwLDAsLjYtLjYwNlY2LjMyN2EuNjA1LjYwNSwwLDAsMC0uNi0uNjA2SDExLjIzMmEuNjA1LjYwNSwwLDAsMS0uNi0uNjA1Vi43NEEuNi42LDAsMCwwLDEwLjAyMy4xMzRaIi8+PHBhdGggZmlsbD0idXJsKCNlNTM3MTU2NS1jYzliLTQ3MjktOWU1NC05YmFjMTM1YTkyYmQpIiBkPSJNOS43NDMuOTA4VjUuMDU3YTEuNTI0LDEuNTI0LDAsMCwwLDEuNTIsMS41MjNoNC4xOFYxNy4wOTJIMi41NTdWLjkwOEg5Ljc0M00xMC4wMzYsMEgyLjI2NEEuNjE0LjYxNCwwLDAsMCwxLjY1LjYxNXYxNi43N0EuNjE0LjYxNCwwLDAsMCwyLjI2NCwxOEgxNS43MzZhLjYxNC42MTQsMCwwLDAsLjYxNC0uNjE1VjYuMjg2YS42MTQuNjE0LDAsMCwwLS42MTQtLjYxNEgxMS4yNjNhLjYxNC42MTQsMCwwLDEtLjYxMy0uNjE1Vi42MTVBLjYxNC42MTQsMCwwLDAsMTAuMDM2LDBaIi8+PHBhdGggZmlsbD0iIzAwNzhkNCIgZD0iTTE2LjExNiw1Ljc5NCwxMC40MzguMTM0VjQuNzQ2YTEuMDQxLDEuMDQxLDAsMCwwLDEuMDM1LDEuMDQ4WiIvPjwvZz48cmVjdCBmaWxsPSIjNWVhMGVmIiByeD0iMC42MDMiIGhlaWdodD0iMS4zNDEiIHdpZHRoPSI5Ljk5OSIgeT0iOC4xOTYiIHg9IjQiLz48cmVjdCBmaWxsPSIjNWVhMGVmIiByeD0iMC42MDMiIGhlaWdodD0iMS4zNDEiIHdpZHRoPSI5Ljk5OSIgeT0iMTAuNTk5IiB4PSI0Ii8+PHJlY3QgZmlsbD0iIzVlYTBlZiIgcng9IjAuNjAzIiBoZWlnaHQ9IjEuMzQxIiB3aWR0aD0iNi4zMDIiIHk9IjEzLjAwMiIgeD0iNCIvPjwvZz48L2c+PC9zdmc+;fontColor=#FFFFFF;" vertex="1" parent="cVnY-JXB5LHUISSboKDK-10">
          <mxGeometry x="30" y="135" width="58.33" height="70" as="geometry" />
        </mxCell>
        <mxCell id="j30cdUnKlF8bIS7Feb2P-26" value="" style="edgeStyle=orthogonalEdgeStyle;rounded=0;orthogonalLoop=1;jettySize=auto;html=1;exitX=1;exitY=0.5;exitDx=0;exitDy=0;entryX=0;entryY=0.5;entryDx=0;entryDy=0;fontSize=12;strokeColor=#FFFFFF;" edge="1" parent="cVnY-JXB5LHUISSboKDK-10" source="j30cdUnKlF8bIS7Feb2P-25" target="cVnY-JXB5LHUISSboKDK-35">
          <mxGeometry x="0.1889" relative="1" as="geometry">
            <mxPoint x="89" y="179" as="sourcePoint" />
            <mxPoint x="159" y="179" as="targetPoint" />
            <mxPoint as="offset" />
          </mxGeometry>
        </mxCell>
      </root>
    </mxGraphModel>
  </diagram>
</mxfile>
